<svg width="120" height="88" viewBox="0 0 120 88" fill="none" xmlns="http://www.w3.org/2000/svg">
    <path d="M2.58162 43.9796V21.4062H10.7987C13.3174 21.4062 15.2536 21.8679 16.6074 22.7914C17.9612 23.7149 18.6381 25.0162 18.6381 26.6953C18.6381 27.9127 18.2235 28.9779 17.3945 29.8909C16.5759 30.8039 15.5265 31.4388 14.2462 31.7956V31.8586C15.8518 32.058 17.1321 32.6509 18.0871 33.6374C19.0526 34.6239 19.5353 35.8255 19.5353 37.2422C19.5353 39.3096 18.7955 40.952 17.3158 42.1693C15.8361 43.3762 13.8159 43.9796 11.2552 43.9796H2.58162ZM7.66616 25.1527V30.5048H9.90147C10.9509 30.5048 11.7747 30.2529 12.3729 29.7492C12.9816 29.235 13.2859 28.5319 13.2859 27.6398C13.2859 25.9817 12.0476 25.1527 9.5709 25.1527H7.66616ZM7.66616 34.2828V40.2331H10.4209C11.5963 40.2331 12.5146 39.9603 13.1757 39.4145C13.8474 38.8688 14.1832 38.1237 14.1832 37.1792C14.1832 36.2767 13.8526 35.5683 13.1915 35.0541C12.5408 34.5399 11.6278 34.2828 10.4524 34.2828H7.66616ZM38.1262 27.8602L31.5777 45.2704C30.0035 49.4577 27.6318 51.5513 24.4625 51.5513C23.2556 51.5513 22.2639 51.4149 21.4873 51.142V47.1752C22.1484 47.5635 22.8673 47.7576 23.6439 47.7576C24.9242 47.7576 25.8162 47.1542 26.32 45.9473L27.17 43.9481L20.6215 27.8602H26.1311L29.1377 37.6672C29.3266 38.2759 29.4735 38.9948 29.5785 39.8238H29.6414C29.7359 39.2152 29.909 38.5068 30.1609 37.6987L33.199 27.8602H38.1262ZM49.9324 43.7907C49.1978 44.179 48.0906 44.3732 46.6109 44.3732C43.1058 44.3732 41.3532 42.5524 41.3532 38.9108V31.528H38.7401V27.8602H41.3532V24.3813L46.3118 22.9646V27.8602H49.9324V31.528H46.3118V38.045C46.3118 39.7241 46.9782 40.5637 48.311 40.5637C48.8357 40.5637 49.3762 40.4115 49.9324 40.1072V43.7907ZM67.1065 37.3367H56.5911C56.759 39.6769 58.2334 40.847 61.0145 40.847C62.788 40.847 64.3464 40.4273 65.6897 39.5877V43.1768C64.1995 43.9744 62.2633 44.3732 59.8811 44.3732C57.2785 44.3732 55.2583 43.6543 53.8205 42.2166C52.3828 40.7683 51.6639 38.7534 51.6639 36.1718C51.6639 33.4957 52.4405 31.3758 53.9937 29.8122C55.5469 28.2485 57.4569 27.4667 59.7236 27.4667C62.0744 27.4667 63.8899 28.1645 65.1702 29.5603C66.4611 30.9561 67.1065 32.8503 67.1065 35.243V37.3367ZM62.4942 34.2828C62.4942 31.974 61.5602 30.8196 59.6922 30.8196C58.8946 30.8196 58.202 31.1502 57.6143 31.8114C57.0371 32.4725 56.6855 33.2963 56.5596 34.2828H62.4942Z" fill="white"/>
    <path d="M21.1199 57.8726H14.6816V76.306H9.58135V57.8726H3.17451V53.7326H21.1199V57.8726ZM31.7613 64.673C31.1631 64.3477 30.4652 64.185 29.6676 64.185C28.5867 64.185 27.7419 64.5838 27.1332 65.3814C26.5246 66.1684 26.2202 67.2441 26.2202 68.6084V76.306H21.2459V60.1866H26.2202V63.1775H26.2832C27.0703 60.9947 28.487 59.9033 30.5334 59.9033C31.0581 59.9033 31.4674 59.9662 31.7613 60.0922V64.673ZM47.5029 76.306H42.7961V73.992H42.7332C41.6522 75.7971 40.0518 76.6996 37.932 76.6996C36.3683 76.6996 35.1352 76.2588 34.2327 75.3773C33.3407 74.4853 32.8947 73.2994 32.8947 71.8197C32.8947 68.6923 34.7469 66.8873 38.4515 66.4046L42.8276 65.8221C42.8276 64.0591 41.8726 63.1775 39.9626 63.1775C38.0422 63.1775 36.2161 63.7495 34.4846 64.8934V61.1469C35.1772 60.7901 36.1217 60.4752 37.3181 60.2024C38.5249 59.9295 39.6216 59.7931 40.6081 59.7931C45.2046 59.7931 47.5029 62.0861 47.5029 66.6722V76.306ZM42.8276 69.7575V68.6714L39.8997 69.0492C38.2835 69.259 37.4755 69.9884 37.4755 71.2372C37.4755 71.8039 37.6696 72.2709 38.0579 72.6382C38.4567 72.995 38.9919 73.1735 39.6636 73.1735C40.5976 73.1735 41.3584 72.8534 41.9461 72.2132C42.5338 71.5626 42.8276 70.744 42.8276 69.7575ZM67.0067 76.306H62.0481V67.3491C62.0481 64.8514 61.1561 63.6026 59.372 63.6026C58.5115 63.6026 57.8031 63.9331 57.2469 64.5943C56.6907 65.2554 56.4126 66.095 56.4126 67.1129V76.306H51.4383V60.1866H56.4126V62.7368H56.4756C57.6615 60.7743 59.3878 59.7931 61.6546 59.7931C65.2227 59.7931 67.0067 62.0074 67.0067 66.436V76.306ZM69.9032 75.881V71.8512C70.7217 72.3444 71.5351 72.7117 72.3431 72.9531C73.1617 73.1944 73.933 73.3151 74.6571 73.3151C75.5387 73.3151 76.2313 73.1944 76.735 72.9531C77.2493 72.7117 77.5064 72.3444 77.5064 71.8512C77.5064 71.5363 77.3909 71.274 77.1601 71.0641C76.9292 70.8542 76.6301 70.6705 76.2628 70.5131C75.906 70.3557 75.5124 70.214 75.0822 70.0881C74.6519 69.9622 74.2374 69.8205 73.8386 69.6631C73.1984 69.4217 72.6317 69.1646 72.1385 68.8917C71.6557 68.6084 71.2465 68.2831 70.9106 67.9158C70.5853 67.5485 70.3335 67.1234 70.155 66.6407C69.9871 66.1579 69.9032 65.586 69.9032 64.9248C69.9032 64.0223 70.0973 63.2457 70.4856 62.5951C70.8844 61.9444 71.4091 61.4145 72.0598 61.0052C72.7209 60.5854 73.4713 60.2811 74.3108 60.0922C75.1609 59.8928 76.0424 59.7931 76.9554 59.7931C77.669 59.7931 78.3932 59.8508 79.1278 59.9662C79.8624 60.0712 80.5865 60.2286 81.3001 60.4385V64.2794C80.6704 63.9121 79.9935 63.6393 79.2694 63.4609C78.5558 63.272 77.8527 63.1775 77.1601 63.1775C76.8347 63.1775 76.5251 63.209 76.2313 63.272C75.948 63.3245 75.6961 63.4084 75.4757 63.5238C75.2553 63.6288 75.0822 63.7705 74.9562 63.9489C74.8303 64.1168 74.7673 64.3109 74.7673 64.5313C74.7673 64.8252 74.8618 65.077 75.0507 65.2869C75.2396 65.4968 75.4862 65.6804 75.7905 65.8379C76.0949 65.9848 76.4307 66.1212 76.798 66.2471C77.1758 66.3626 77.5484 66.4833 77.9157 66.6092C78.5768 66.8401 79.175 67.0919 79.7102 67.3648C80.2454 67.6377 80.7019 67.9577 81.0797 68.325C81.468 68.6923 81.7619 69.1226 81.9613 69.6158C82.1711 70.1091 82.2761 70.6968 82.2761 71.3789C82.2761 72.3339 82.0662 73.1525 81.6464 73.8346C81.2371 74.5062 80.6862 75.0572 79.9935 75.4875C79.3114 75.9072 78.5191 76.2116 77.6166 76.4005C76.7245 76.5999 75.7958 76.6996 74.8303 76.6996C73.0567 76.6996 71.4144 76.4267 69.9032 75.881ZM87.6755 57.6365C86.8359 57.6365 86.1485 57.3899 85.6133 56.8966C85.0781 56.3929 84.8105 55.779 84.8105 55.0549C84.8105 54.3098 85.0781 53.7011 85.6133 53.2288C86.1485 52.7566 86.8359 52.5205 87.6755 52.5205C88.5255 52.5205 89.2129 52.7566 89.7376 53.2288C90.2728 53.7011 90.5404 54.3098 90.5404 55.0549C90.5404 55.8105 90.2728 56.4296 89.7376 56.9124C89.2129 57.3951 88.5255 57.6365 87.6755 57.6365ZM90.1311 76.306H85.1568V60.1866H90.1311V76.306ZM104.062 76.1171C103.328 76.5054 102.221 76.6996 100.741 76.6996C97.2359 76.6996 95.4833 74.8788 95.4833 71.2372V63.8544H92.8702V60.1866H95.4833V56.7077L100.442 55.291V60.1866H104.062V63.8544H100.442V70.3714C100.442 72.0505 101.108 72.8901 102.441 72.8901C102.966 72.8901 103.506 72.7379 104.062 72.4336V76.1171Z" fill="white"/>
    <path d="M35.9095 80.7794H33.9846V86.2407H33.2682V80.7794H31.3433V80.0474H35.9095V80.7794Z" fill="white"/>
    <path d="M38.3772 82.4473H38.341C38.2397 82.4196 38.1408 82.4002 38.0443 82.3891C37.9502 82.3753 37.8381 82.3683 37.7078 82.3683C37.4979 82.3683 37.2953 82.4224 37.0999 82.5305C36.9045 82.6359 36.7164 82.7732 36.5355 82.9423V86.2407H35.8552V81.5947H36.5355V82.281C36.8056 82.0314 37.0432 81.8553 37.2483 81.7527C37.4557 81.6474 37.6668 81.5947 37.8815 81.5947C37.9997 81.5947 38.0853 81.5988 38.1384 81.6072C38.1914 81.6127 38.271 81.6252 38.3772 81.6446V82.4473Z" fill="white"/>
    <path d="M42.028 86.2407H41.3514V85.7457C41.2911 85.7929 41.2091 85.8594 41.1054 85.9454C41.004 86.0286 40.9051 86.0951 40.8087 86.145C40.6953 86.2088 40.565 86.2615 40.4179 86.3031C40.2707 86.3474 40.0983 86.3696 39.9005 86.3696C39.5362 86.3696 39.2275 86.231 38.9742 85.9537C38.7209 85.6764 38.5943 85.3228 38.5943 84.893C38.5943 84.5409 38.6594 84.2567 38.7897 84.0404C38.9223 83.8213 39.1105 83.6494 39.3541 83.5246C39.6002 83.3998 39.8957 83.3153 40.2406 83.2709C40.5855 83.2265 40.9558 83.1933 41.3514 83.1711V83.0505C41.3514 82.873 41.3237 82.726 41.2682 82.6096C41.2151 82.4931 41.1379 82.4016 41.0366 82.335C40.9401 82.2713 40.8243 82.2283 40.6893 82.2061C40.5542 82.1839 40.4131 82.1728 40.2659 82.1728C40.0874 82.1728 39.8884 82.2006 39.6689 82.256C39.4494 82.3087 39.2227 82.3863 38.9887 82.4889H38.9525V81.6945C39.0852 81.6529 39.2769 81.6072 39.5278 81.5572C39.7787 81.5073 40.0259 81.4824 40.2695 81.4824C40.5542 81.4824 40.8014 81.5101 41.0113 81.5656C41.2236 81.6182 41.4069 81.7098 41.5613 81.8401C41.7132 81.9676 41.829 82.1326 41.9086 82.335C41.9882 82.5375 42.028 82.7884 42.028 83.0879V86.2407ZM41.3514 85.0969V83.8033C41.144 83.8172 40.8991 83.838 40.6169 83.8657C40.3371 83.8934 40.1152 83.9336 39.9511 83.9863C39.7557 84.0501 39.5977 84.1499 39.4771 84.2858C39.3565 84.4189 39.2962 84.6033 39.2962 84.839C39.2962 85.1052 39.3662 85.3062 39.5061 85.4421C39.646 85.5752 39.8595 85.6417 40.1465 85.6417C40.3853 85.6417 40.6036 85.589 40.8014 85.4837C40.9992 85.3755 41.1826 85.2466 41.3514 85.0969Z" fill="white"/>
    <path d="M46.7173 86.2407H46.0371V83.5953C46.0371 83.3818 46.0262 83.1822 46.0045 82.9964C45.9828 82.8078 45.943 82.6609 45.8851 82.5555C45.8248 82.439 45.738 82.3531 45.6246 82.2976C45.5112 82.2394 45.3641 82.2103 45.1832 82.2103C44.9974 82.2103 44.8032 82.2629 44.6006 82.3683C44.398 82.4737 44.2038 82.6082 44.0181 82.7718V86.2407H43.3378V81.5947H44.0181V82.1104C44.2303 81.908 44.4499 81.75 44.6766 81.6363C44.9033 81.5226 45.1361 81.4657 45.3749 81.4657C45.8115 81.4657 46.1444 81.6169 46.3736 81.9191C46.6027 82.2214 46.7173 82.6567 46.7173 83.2251V86.2407Z" fill="white"/>
    <path d="M50.9145 84.9014C50.9145 85.3256 50.7613 85.6736 50.455 85.9454C50.151 86.2171 49.7349 86.353 49.2067 86.353C48.9076 86.353 48.6326 86.3128 48.3817 86.2324C48.1333 86.1492 47.9246 86.0591 47.7557 85.962V85.0844H47.7919C48.0066 85.2702 48.2454 85.4185 48.5083 85.5294C48.7713 85.6376 49.0233 85.6916 49.2646 85.6916C49.5637 85.6916 49.7977 85.6362 49.9665 85.5253C50.1354 85.4144 50.2198 85.2397 50.2198 85.0012C50.2198 84.8182 50.174 84.6795 50.0823 84.5853C49.9906 84.491 49.8145 84.4106 49.554 84.344C49.4575 84.3191 49.3309 84.2899 49.1741 84.2567C49.0197 84.2234 48.8786 84.1873 48.7508 84.1485C48.3962 84.0404 48.1441 83.8823 47.9946 83.6744C47.8474 83.4636 47.7738 83.2057 47.7738 82.9007C47.7738 82.7094 47.8076 82.5291 47.8751 82.36C47.9451 82.1909 48.05 82.0397 48.1899 81.9066C48.325 81.7763 48.4963 81.6737 48.7037 81.5988C48.9136 81.5212 49.1476 81.4824 49.4057 81.4824C49.6469 81.4824 49.8905 81.517 50.1366 81.5864C50.385 81.6529 50.5913 81.7347 50.7553 81.8318V82.6678H50.7191C50.5454 82.5208 50.3344 82.3974 50.0859 82.2976C49.8375 82.195 49.5938 82.1437 49.355 82.1437C49.1066 82.1437 48.8967 82.1992 48.7254 82.3101C48.5542 82.4182 48.4685 82.5804 48.4685 82.7967C48.4685 82.9881 48.5204 83.1323 48.6241 83.2293C48.7254 83.3264 48.8895 83.4054 49.1162 83.4664C49.2416 83.4997 49.3816 83.5329 49.5359 83.5662C49.6927 83.5995 49.823 83.63 49.9267 83.6577C50.2427 83.7409 50.4863 83.8837 50.6576 84.0861C50.8289 84.2913 50.9145 84.5631 50.9145 84.9014Z" fill="white"/>
    <path d="M55.4482 83.8615C55.4482 84.2386 55.4012 84.5839 55.3071 84.8972C55.213 85.2078 55.0803 85.4712 54.9091 85.6875C54.7499 85.8927 54.5617 86.0521 54.3446 86.1658C54.1299 86.2767 53.902 86.3322 53.6608 86.3322C53.4509 86.3322 53.2603 86.3058 53.0891 86.2532C52.9202 86.2005 52.7478 86.1187 52.5717 86.0078V87.9543H51.8914V81.5947H52.5717V82.0813C52.7526 81.9066 52.9552 81.7611 53.1795 81.6446C53.4063 81.5254 53.6475 81.4657 53.9032 81.4657C54.3905 81.4657 54.7692 81.6779 55.0393 82.1021C55.3119 82.5236 55.4482 83.1101 55.4482 83.8615ZM54.7462 83.8823C54.7462 83.3222 54.663 82.9035 54.4966 82.6262C54.3301 82.3489 54.0745 82.2103 53.7295 82.2103C53.5341 82.2103 53.3375 82.2588 53.1397 82.3558C52.9419 82.4529 52.7526 82.5804 52.5717 82.7385V85.3714C52.7646 85.4712 52.9299 85.5391 53.0674 85.5752C53.2073 85.6112 53.3653 85.6293 53.5414 85.6293C53.9201 85.6293 54.2156 85.4823 54.4278 85.1884C54.6401 84.8944 54.7462 84.4591 54.7462 83.8823Z" fill="white"/>
    <path d="M59.9529 83.9198C59.9529 84.6768 59.7841 85.2743 59.4464 85.7124C59.1087 86.1506 58.6564 86.3696 58.0895 86.3696C57.5178 86.3696 57.0631 86.1506 56.7254 85.7124C56.3902 85.2743 56.2225 84.6768 56.2225 83.9198C56.2225 83.1628 56.3902 82.5652 56.7254 82.1271C57.0631 81.6862 57.5178 81.4657 58.0895 81.4657C58.6564 81.4657 59.1087 81.6862 59.4464 82.1271C59.7841 82.5652 59.9529 83.1628 59.9529 83.9198ZM59.251 83.9198C59.251 83.318 59.1485 82.8716 58.9434 82.5804C58.7384 82.2865 58.4538 82.1396 58.0895 82.1396C57.7205 82.1396 57.4334 82.2865 57.2284 82.5804C57.0258 82.8716 56.9244 83.318 56.9244 83.9198C56.9244 84.5021 57.027 84.9443 57.232 85.2466C57.437 85.5461 57.7229 85.6958 58.0895 85.6958C58.4514 85.6958 58.7348 85.5475 58.9398 85.2508C59.1473 84.9513 59.251 84.5076 59.251 83.9198Z" fill="white"/>
    <path d="M63.5314 82.4473H63.4952C63.3939 82.4196 63.295 82.4002 63.1985 82.3891C63.1045 82.3753 62.9923 82.3683 62.862 82.3683C62.6522 82.3683 62.4496 82.4224 62.2542 82.5305C62.0588 82.6359 61.8706 82.7732 61.6897 82.9423V86.2407H61.0095V81.5947H61.6897V82.281C61.9599 82.0314 62.1975 81.8553 62.4025 81.7527C62.61 81.6474 62.821 81.5947 63.0357 81.5947C63.1539 81.5947 63.2395 81.5988 63.2926 81.6072C63.3457 81.6127 63.4253 81.6252 63.5314 81.6446V82.4473Z" fill="white"/>
    <path d="M66.2704 86.1991C66.1426 86.2379 66.0027 86.2698 65.8507 86.2948C65.7012 86.3197 65.5673 86.3322 65.4491 86.3322C65.0366 86.3322 64.723 86.2046 64.5083 85.9495C64.2937 85.6944 64.1863 85.2854 64.1863 84.7225V82.2519H63.7268V81.5947H64.1863V80.2595H64.8666V81.5947H66.2704V82.2519H64.8666V84.369C64.8666 84.613 64.8714 84.8043 64.881 84.943C64.8907 85.0788 64.9244 85.2064 64.9823 85.3256C65.0354 85.4365 65.1078 85.5183 65.1994 85.571C65.2935 85.6209 65.4358 85.6459 65.6264 85.6459C65.7374 85.6459 65.8531 85.6279 65.9737 85.5918C66.0944 85.553 66.1812 85.5211 66.2343 85.4962H66.2704V86.1991Z" fill="white"/>
    <path d="M71.8969 81.2869C71.8969 81.0235 71.8281 80.8169 71.6906 80.6671C71.5555 80.5146 71.3819 80.4384 71.1696 80.4384C70.9477 80.4384 70.7668 80.5243 70.6268 80.6963C70.4869 80.8654 70.417 81.0734 70.417 81.3202C70.417 81.5281 70.464 81.7125 70.5581 81.8734C70.6546 82.0342 70.8608 82.2241 71.1768 82.4432C71.4132 82.3461 71.5917 82.2047 71.7123 82.0189C71.8354 81.8304 71.8969 81.5864 71.8969 81.2869ZM72.5988 84.9305L70.8693 82.9922C70.7945 83.0338 70.7197 83.0893 70.6449 83.1586C70.5702 83.2251 70.4954 83.3167 70.4206 83.4331C70.3531 83.5413 70.2976 83.6716 70.2542 83.8241C70.2107 83.9766 70.189 84.1485 70.189 84.3399C70.189 84.7447 70.2916 85.0719 70.4966 85.3215C70.704 85.5683 70.9971 85.6916 71.3758 85.6916C71.6002 85.6916 71.8221 85.6293 72.0416 85.5045C72.2635 85.3769 72.4492 85.1856 72.5988 84.9305ZM73.6879 82.4598V82.8591C73.6879 83.1253 73.6578 83.4248 73.5974 83.7575C73.5371 84.0903 73.4346 84.4078 73.2899 84.71L74.6576 86.2407H73.7675L72.9389 85.309C72.6615 85.7027 72.3781 85.9786 72.0886 86.1367C71.7992 86.292 71.5013 86.3696 71.1949 86.3696C70.6932 86.3696 70.2759 86.2019 69.943 85.8663C69.6125 85.528 69.4473 85.0858 69.4473 84.5395C69.4473 84.2844 69.4786 84.064 69.5414 83.8782C69.6041 83.6924 69.6777 83.5316 69.7621 83.3957C69.8465 83.2654 69.9514 83.1433 70.0769 83.0297C70.2023 82.9132 70.3289 82.812 70.4568 82.726C70.1914 82.5264 69.9997 82.3253 69.8815 82.1229C69.7657 81.9205 69.7078 81.6654 69.7078 81.3576C69.7078 81.1718 69.7392 80.9957 69.8019 80.8294C69.867 80.6602 69.9635 80.5063 70.0913 80.3677C70.212 80.2346 70.3687 80.1264 70.5617 80.0432C70.7571 79.9601 70.9718 79.9185 71.2058 79.9185C71.6231 79.9185 71.9608 80.0405 72.2189 80.2845C72.477 80.5257 72.606 80.8321 72.606 81.2037C72.606 81.3257 72.5916 81.4644 72.5626 81.6196C72.5337 81.7721 72.4842 81.9094 72.4143 82.0314C72.3371 82.1673 72.2273 82.2976 72.085 82.4224C71.9427 82.5472 71.7582 82.6539 71.5314 82.7427L72.8738 84.2483C72.9076 84.1374 72.9329 84.0154 72.9498 83.8823C72.9667 83.7492 72.9763 83.6106 72.9787 83.4664C72.9835 83.3111 72.9848 83.1378 72.9823 82.9465C72.9823 82.7551 72.9823 82.5929 72.9823 82.4598H73.6879Z" fill="white"/>
    <path d="M81.1524 86.2407H77.744V80.0474H78.4604V85.5086H81.1524V86.2407Z" fill="white"/>
    <path d="M85.2591 83.9198C85.2591 84.6768 85.0903 85.2743 84.7526 85.7124C84.4149 86.1506 83.9626 86.3696 83.3957 86.3696C82.824 86.3696 82.3693 86.1506 82.0316 85.7124C81.6963 85.2743 81.5287 84.6768 81.5287 83.9198C81.5287 83.1628 81.6963 82.5652 82.0316 82.1271C82.3693 81.6862 82.824 81.4657 83.3957 81.4657C83.9626 81.4657 84.4149 81.6862 84.7526 82.1271C85.0903 82.5652 85.2591 83.1628 85.2591 83.9198ZM84.5572 83.9198C84.5572 83.318 84.4547 82.8716 84.2496 82.5804C84.0446 82.2865 83.76 82.1396 83.3957 82.1396C83.0267 82.1396 82.7396 82.2865 82.5346 82.5804C82.332 82.8716 82.2306 83.318 82.2306 83.9198C82.2306 84.5021 82.3332 84.9443 82.5382 85.2466C82.7432 85.5461 83.0291 85.6958 83.3957 85.6958C83.7576 85.6958 84.041 85.5475 84.246 85.2508C84.4535 84.9513 84.5572 84.5076 84.5572 83.9198Z" fill="white"/>
    <path d="M89.5938 85.7124C89.5938 86.4999 89.4382 87.0781 89.1271 87.4469C88.8159 87.8157 88.3371 88.0001 87.6906 88.0001C87.4759 88.0001 87.2661 87.9821 87.061 87.946C86.8584 87.9127 86.6582 87.8642 86.4604 87.8004V87.0018H86.4966C86.6075 87.0518 86.7836 87.1128 87.0249 87.1849C87.2661 87.2597 87.5073 87.2972 87.7485 87.2972C87.9801 87.2972 88.1718 87.2653 88.3238 87.2015C88.4758 87.1377 88.594 87.049 88.6784 86.9353C88.7628 86.8272 88.8231 86.6968 88.8593 86.5443C88.8955 86.3918 88.9136 86.2213 88.9136 86.0327V85.6085C88.7086 85.797 88.512 85.9384 88.3238 86.0327C88.1381 86.1242 87.9005 86.17 87.611 86.17C87.1286 86.17 86.745 85.9703 86.4604 85.571C86.1782 85.169 86.0371 84.6033 86.0371 83.874C86.0371 83.4747 86.0853 83.1309 86.1818 82.8425C86.2807 82.5513 86.4146 82.3004 86.5834 82.0896C86.7402 81.8928 86.9308 81.7403 87.1551 81.6321C87.3794 81.5212 87.6026 81.4657 87.8245 81.4657C88.0585 81.4657 88.2539 81.4935 88.4107 81.5489C88.5699 81.6016 88.7375 81.6834 88.9136 81.7943L88.957 81.5947H89.5938V85.7124ZM88.9136 84.9638V82.4307C88.7327 82.3364 88.5638 82.2699 88.407 82.2311C88.2527 82.1895 88.0983 82.1687 87.9439 82.1687C87.57 82.1687 87.2757 82.3129 87.061 82.6012C86.8464 82.8896 86.739 83.3083 86.739 83.8574C86.739 84.3787 86.8186 84.7738 86.9778 85.0428C87.137 85.3118 87.4012 85.4462 87.7702 85.4462C87.968 85.4462 88.1658 85.4033 88.3636 85.3173C88.5638 85.2286 88.7472 85.1107 88.9136 84.9638Z" fill="white"/>
    <path d="M91.6635 80.8169H90.8964V80.0058H91.6635V80.8169ZM91.6201 86.2407H90.9398V81.5947H91.6201V86.2407Z" fill="white"/>
    <path d="M95.8534 84.9014C95.8534 85.3256 95.7003 85.6736 95.3939 85.9454C95.09 86.2171 94.6739 86.353 94.1456 86.353C93.8465 86.353 93.5715 86.3128 93.3207 86.2324C93.0722 86.1492 92.8635 86.0591 92.6947 85.962V85.0844H92.7309C92.9456 85.2702 93.1844 85.4185 93.4473 85.5294C93.7102 85.6376 93.9623 85.6916 94.2035 85.6916C94.5026 85.6916 94.7366 85.6362 94.9055 85.5253C95.0743 85.4144 95.1587 85.2397 95.1587 85.0012C95.1587 84.8182 95.1129 84.6795 95.0212 84.5853C94.9296 84.491 94.7535 84.4106 94.493 84.344C94.3965 84.3191 94.2698 84.2899 94.1131 84.2567C93.9587 84.2234 93.8176 84.1873 93.6897 84.1485C93.3351 84.0404 93.083 83.8823 92.9335 83.6744C92.7864 83.4636 92.7128 83.2057 92.7128 82.9007C92.7128 82.7094 92.7466 82.5291 92.8141 82.36C92.884 82.1909 92.989 82.0397 93.1289 81.9066C93.264 81.7763 93.4352 81.6737 93.6427 81.5988C93.8525 81.5212 94.0865 81.4824 94.3446 81.4824C94.5858 81.4824 94.8295 81.517 95.0755 81.5864C95.324 81.6529 95.5302 81.7347 95.6942 81.8318V82.6678H95.6581C95.4844 82.5208 95.2733 82.3974 95.0249 82.2976C94.7764 82.195 94.5328 82.1437 94.294 82.1437C94.0455 82.1437 93.8357 82.1992 93.6644 82.3101C93.4931 82.4182 93.4075 82.5804 93.4075 82.7967C93.4075 82.9881 93.4594 83.1323 93.5631 83.2293C93.6644 83.3264 93.8284 83.4054 94.0552 83.4664C94.1806 83.4997 94.3205 83.5329 94.4749 83.5662C94.6317 83.5995 94.7619 83.63 94.8657 83.6577C95.1816 83.7409 95.4253 83.8837 95.5965 84.0861C95.7678 84.2913 95.8534 84.5631 95.8534 84.9014Z" fill="white"/>
    <path d="M98.929 86.1991C98.8011 86.2379 98.6612 86.2698 98.5093 86.2948C98.3597 86.3197 98.2258 86.3322 98.1076 86.3322C97.6951 86.3322 97.3816 86.2046 97.1669 85.9495C96.9522 85.6944 96.8448 85.2854 96.8448 84.7225V82.2519H96.3853V81.5947H96.8448V80.2595H97.5251V81.5947H98.929V82.2519H97.5251V84.369C97.5251 84.613 97.5299 84.8043 97.5396 84.943C97.5492 85.0788 97.583 85.2064 97.6409 85.3256C97.6939 85.4365 97.7663 85.5183 97.858 85.571C97.952 85.6209 98.0944 85.6459 98.2849 85.6459C98.3959 85.6459 98.5117 85.6279 98.6323 85.5918C98.7529 85.553 98.8397 85.5211 98.8928 85.4962H98.929V86.1991Z" fill="white"/>
    <path d="M100.485 80.8169H99.7178V80.0058H100.485V80.8169ZM100.441 86.2407H99.7612V81.5947H100.441V86.2407Z" fill="white"/>
    <path d="M104.776 85.9495C104.549 86.0743 104.333 86.1714 104.128 86.2407C103.926 86.31 103.71 86.3447 103.481 86.3447C103.189 86.3447 102.921 86.2961 102.678 86.1991C102.434 86.0993 102.225 85.9495 102.052 85.7499C101.875 85.5502 101.739 85.2979 101.643 84.9929C101.546 84.6879 101.498 84.3315 101.498 83.9239C101.498 83.1641 101.679 82.568 102.041 82.1354C102.405 81.7028 102.885 81.4865 103.481 81.4865C103.712 81.4865 103.939 81.524 104.161 81.5988C104.385 81.6737 104.59 81.7652 104.776 81.8734V82.7427H104.74C104.532 82.5569 104.318 82.4141 104.096 82.3142C103.876 82.2144 103.662 82.1645 103.452 82.1645C103.066 82.1645 102.761 82.3142 102.536 82.6137C102.314 82.9104 102.204 83.3472 102.204 83.9239C102.204 84.484 102.312 84.9152 102.529 85.2175C102.749 85.517 103.056 85.6667 103.452 85.6667C103.589 85.6667 103.729 85.6459 103.872 85.6043C104.014 85.5627 104.142 85.5086 104.255 85.4421C104.354 85.3839 104.447 85.3228 104.534 85.2591C104.621 85.1925 104.689 85.1357 104.74 85.0885H104.776V85.9495Z" fill="white"/>
    <path d="M107.462 4.48987L72.5371 25.7196L94.8284 26.9388L107.462 4.48987Z" fill="white"/>
    <path d="M106.567 42.9165L95.5362 26.8972L106.567 7.82662V42.9165Z" stroke="white" stroke-width="1.79104"/>
    <mask id="path-6-inside-1_899_1030" fill="white">
        <path d="M94.6926 48.4616C98.4586 48.6411 102.216 47.9632 105.671 46.4805L102.369 42.0611C99.9991 42.9037 97.4791 43.2779 94.9542 43.1575C92.019 43.0175 89.1562 42.213 86.5892 40.8066C84.0221 39.4002 81.82 37.4299 80.1546 35.0493C78.7048 32.977 77.6958 30.6424 77.1833 28.1859L71.6416 27.8368C72.1775 31.5063 73.568 35.0045 75.7047 38.0588C77.8414 41.1131 80.6667 43.641 83.9603 45.4454C87.2538 47.2498 90.9267 48.2821 94.6926 48.4616Z"/>
    </mask>
    <path d="M105.671 46.4805L108.18 52.3283L115.605 49.1428L110.769 42.6712L105.671 46.4805ZM94.6926 48.4616L94.9957 42.1055H94.9957L94.6926 48.4616ZM83.9603 45.4454L80.9028 51.0261L80.9028 51.0261L83.9603 45.4454ZM75.7047 38.0588L70.4906 41.7065L70.4906 41.7065L75.7047 38.0588ZM71.6416 27.8368L72.0416 21.4861L64.2113 20.9928L65.3451 28.7563L71.6416 27.8368ZM80.1546 35.0493L74.9405 38.697L74.9405 38.697L80.1546 35.0493ZM86.5892 40.8066L89.6466 35.2259L89.6466 35.2259L86.5892 40.8066ZM94.9542 43.1575L95.2572 36.8014H95.2572L94.9542 43.1575ZM102.369 42.0611L107.466 38.2518L104.657 34.4938L100.237 36.0655L102.369 42.0611ZM77.1833 28.1859L83.4125 26.8862L82.4222 22.1399L77.5833 21.8351L77.1833 28.1859ZM103.162 40.6327C100.596 41.7339 97.8005 42.2392 94.9957 42.1055L94.3896 54.8177C99.1166 55.0431 103.836 54.1924 108.18 52.3283L103.162 40.6327ZM94.9957 42.1055C92.1909 41.9718 89.4605 41.203 87.0177 39.8647L80.9028 51.0261C85.0472 53.2966 89.6625 54.5923 94.3896 54.8177L94.9957 42.1055ZM87.0177 39.8647C84.5754 38.5267 82.4904 36.6577 80.9188 34.4111L70.4906 41.7065C73.1925 45.5685 76.758 48.7553 80.9028 51.0261L87.0177 39.8647ZM80.9188 34.4111C79.3475 32.1651 78.3299 29.6002 77.9381 26.9173L65.3451 28.7563C66.025 33.4123 67.7885 37.8439 70.4906 41.7065L80.9188 34.4111ZM74.9405 38.697C77.171 41.8853 80.1134 44.5145 83.5317 46.3873L89.6466 35.2259C87.9308 34.2859 86.469 32.9745 85.3687 31.4016L74.9405 38.697ZM83.5317 46.3873C86.9496 48.2598 90.7548 49.3278 94.6512 49.5136L95.2572 36.8014C93.2832 36.7073 91.3629 36.1662 89.6466 35.2259L83.5317 46.3873ZM94.6512 49.5136C98.0032 49.6734 101.35 49.1769 104.5 48.0567L100.237 36.0655C98.6479 36.6305 96.9551 36.8823 95.2572 36.8014L94.6512 49.5136ZM110.769 42.6712L107.466 38.2518L97.2715 45.8704L100.574 50.2898L110.769 42.6712ZM70.9541 29.4855C71.6432 32.7883 72.9986 35.9212 74.9405 38.697L85.3687 31.4016C84.411 30.0328 83.7485 28.4966 83.4125 26.8862L70.9541 29.4855ZM71.2416 34.1875L76.7833 34.5366L77.5833 21.8351L72.0416 21.4861L71.2416 34.1875Z" fill="white" mask="url(#path-6-inside-1_899_1030)"/>
    <mask id="path-8-inside-2_899_1030" fill="white">
        <path d="M74.9826 11.8767C72.9253 15.3602 71.7765 19.3043 71.6416 23.3469L77.3742 20.2233C77.7968 18.2444 78.5374 16.3394 79.5739 14.5843C81.1775 11.8691 83.4377 9.59993 86.1473 7.98489C88.857 6.36984 91.9291 5.4607 95.0819 5.34089C96.9997 5.26801 98.9101 5.48864 100.748 5.98887L106.567 2.52993C102.943 0.727653 98.9242 -0.136268 94.8793 0.0174488C90.8343 0.171166 86.8927 1.3376 83.4163 3.4097C79.9398 5.4818 77.0399 8.3932 74.9826 11.8767Z"/>
    </mask>
    <path d="M71.6416 23.3469L65.2818 23.1348L64.9106 34.2613L74.6863 28.9346L71.6416 23.3469ZM74.9826 11.8767L80.4617 15.1126L74.9826 11.8767ZM83.4163 3.4097L80.1583 -2.05633L83.4163 3.4097ZM94.8793 0.0174488L94.6376 -6.34129L94.8793 0.0174488ZM106.567 2.52993L109.818 7.99981L119.857 2.03259L109.401 -3.16767L106.567 2.52993ZM95.0819 5.34089L95.3235 11.6996L95.0819 5.34089ZM86.1473 7.98489L82.8894 2.51886V2.51886L86.1473 7.98489ZM79.5739 14.5843L74.0948 11.3484L74.0948 11.3484L79.5739 14.5843ZM77.3742 20.2233L80.4189 25.8109L82.9866 24.4118L83.5972 21.5522L77.3742 20.2233ZM100.748 5.98887L99.0772 12.1289L101.68 12.8374L104 11.4587L100.748 5.98887ZM78.0014 23.5591C78.1007 20.5824 78.9466 17.6781 80.4617 15.1126L69.5034 8.64082C66.904 13.0424 65.4522 18.0261 65.2818 23.1348L78.0014 23.5591ZM80.4617 15.1126C81.9769 12.5471 84.1129 10.4024 86.6743 8.87573L80.1583 -2.05633C75.7667 0.561215 72.1029 4.23931 69.5034 8.64082L80.4617 15.1126ZM86.6743 8.87573C89.2356 7.34905 92.14 6.48947 95.1209 6.37619L94.6376 -6.34129C89.5285 -6.14713 84.5498 -4.67386 80.1583 -2.05633L86.6743 8.87573ZM95.1209 6.37619C98.1018 6.26291 101.063 6.89958 103.733 8.22753L109.401 -3.16767C104.823 -5.44428 99.7467 -6.53544 94.6376 -6.34129L95.1209 6.37619ZM94.8402 -1.01785C90.6234 -0.857599 86.5141 0.35839 82.8894 2.51886L89.4053 13.4509C91.1999 12.3813 93.2348 11.779 95.3235 11.6996L94.8402 -1.01785ZM82.8894 2.51886C79.2646 4.67934 76.2405 7.71525 74.0948 11.3484L85.0531 17.8202C86.1144 16.023 87.6108 14.5205 89.4053 13.4509L82.8894 2.51886ZM74.0948 11.3484C72.7078 13.6969 71.7167 16.2462 71.1512 18.8944L83.5972 21.5522C83.8769 20.2426 84.367 18.9818 85.0531 17.8202L74.0948 11.3484ZM74.6863 28.9346L80.4189 25.8109L74.3295 14.6356L68.5969 17.7593L74.6863 28.9346ZM102.419 -0.151143C99.9606 -0.820225 97.4054 -1.11533 94.8402 -1.01785L95.3235 11.6996C96.594 11.6513 97.8595 11.7975 99.0772 12.1289L102.419 -0.151143ZM103.315 -2.93995L97.4966 0.518985L104 11.4587L109.818 7.99981L103.315 -2.93995Z" fill="white" mask="url(#path-8-inside-2_899_1030)"/>
    <mask id="path-10-inside-3_899_1030" fill="white">
        <path d="M117.187 12.759C115.274 9.13338 112.109 5.86247 108.683 3.5918L108.683 10.3667C110.169 11.7848 111.421 13.437 112.385 15.2637C113.875 18.0896 114.628 21.2425 114.575 24.4331C114.521 27.6237 113.662 30.7498 112.077 33.5245C111.113 35.2124 109.899 36.7373 108.482 38.0511L108.358 44.8979C111.859 42.7426 114.759 39.7476 116.792 36.1877C118.826 32.6278 119.928 28.617 119.996 24.5234C120.065 20.4299 119.099 16.3847 117.187 12.759Z"/>
    </mask>
    <path d="M117.187 12.759L122.815 9.79019V9.79019L117.187 12.759ZM108.683 3.5918L112.199 -1.7123L102.32 -8.2598L102.32 3.59181L108.683 3.5918ZM108.683 10.3667L102.32 10.3667L102.32 13.0901L104.29 14.9703L108.683 10.3667ZM112.385 15.2637L118.013 12.2948L118.013 12.2948L112.385 15.2637ZM114.575 24.4331L108.212 24.3259L108.212 24.326L114.575 24.4331ZM112.077 33.5245L106.552 30.3683H106.552L112.077 33.5245ZM108.482 38.0511L104.156 33.3844L102.168 35.2267L102.119 37.9364L108.482 38.0511ZM108.358 44.8979L101.996 44.7832L101.786 56.4172L111.694 50.3165L108.358 44.8979ZM116.792 36.1877L111.267 33.0314H111.267L116.792 36.1877ZM119.996 24.5234L113.634 24.4163V24.4163L119.996 24.5234ZM122.815 9.79019C120.334 5.08659 116.377 1.0571 112.199 -1.7123L105.168 8.8959C107.841 10.6678 110.215 13.1802 111.559 15.7279L122.815 9.79019ZM102.32 3.59181L102.32 10.3667L115.047 10.3667L115.047 3.59178L102.32 3.59181ZM104.29 14.9703C105.282 15.9163 106.115 17.0172 106.757 18.2325L118.013 12.2948C116.727 9.85682 115.057 7.65323 113.077 5.76311L104.29 14.9703ZM106.757 18.2325C107.748 20.1124 108.248 22.2075 108.212 24.3259L120.937 24.5403C121.009 20.2775 120.003 16.0668 118.013 12.2948L106.757 18.2325ZM108.212 24.326C108.177 26.4444 107.606 28.522 106.552 30.3683L117.603 36.6807C119.718 32.9776 120.865 28.803 120.937 24.5403L108.212 24.326ZM106.552 30.3683C105.91 31.4915 105.101 32.5078 104.156 33.3844L112.808 42.7179C114.697 40.9669 116.316 38.9332 117.603 36.6807L106.552 30.3683ZM102.119 37.9364L101.996 44.7832L114.72 45.0127L114.844 38.1659L102.119 37.9364ZM111.694 50.3165C116.1 47.6039 119.754 43.832 122.318 39.3439L111.267 33.0314C109.764 35.6632 107.617 37.8813 105.022 39.4793L111.694 50.3165ZM122.318 39.3439C124.881 34.8556 126.272 29.7963 126.359 24.6306L113.634 24.4163C113.583 27.4377 112.77 30.3999 111.267 33.0314L122.318 39.3439ZM126.359 24.6306C126.446 19.4649 125.227 14.3618 122.815 9.79019L111.559 15.7279C112.972 18.4075 113.685 21.3948 113.634 24.4163L126.359 24.6306Z" fill="white" mask="url(#path-10-inside-3_899_1030)"/>
</svg>