<svg width="88" height="64" viewBox="0 0 88 64" fill="none" xmlns="http://www.w3.org/2000/svg">
    <path d="M1.89319 31.5306V14.9768H7.91908C9.76609 14.9768 11.186 15.3154 12.1788 15.9926C13.1715 16.6699 13.6679 17.6242 13.6679 18.8555C13.6679 19.7482 13.3639 20.5294 12.7559 21.1989C12.1557 21.8684 11.3861 22.334 10.4472 22.5957V22.6419C11.6246 22.7881 12.5635 23.2229 13.2639 23.9463C13.9719 24.6697 14.3259 25.5509 14.3259 26.5899C14.3259 28.106 13.7833 29.3104 12.6982 30.2031C11.6131 31.0881 10.1316 31.5306 8.25385 31.5306H1.89319ZM5.62185 17.7242V21.6491H7.26108C8.03067 21.6491 8.63479 21.4644 9.07346 21.095C9.51982 20.7179 9.743 20.2023 9.743 19.5481C9.743 18.3322 8.83489 17.7242 7.01866 17.7242H5.62185ZM5.62185 24.4196V28.7832H7.64202C8.50396 28.7832 9.17736 28.5831 9.6622 28.1829C10.1547 27.7827 10.401 27.2363 10.401 26.5437C10.401 25.8819 10.1586 25.3624 9.67374 24.9853C9.19659 24.6082 8.52705 24.4196 7.66511 24.4196H5.62185ZM27.9592 19.7097L23.1569 32.4772C22.0026 35.5479 20.2633 37.0832 17.9391 37.0832C17.0541 37.0832 16.3268 36.9832 15.7573 36.7831V33.874C16.2422 34.1588 16.7694 34.3012 17.3389 34.3012C18.2778 34.3012 18.9319 33.8586 19.3013 32.9736L19.9247 31.5076L15.1224 19.7097H19.1628L21.3677 26.9016C21.5062 27.3479 21.6139 27.8751 21.6909 28.4831H21.7371C21.8063 28.0367 21.9333 27.5172 22.118 26.9246L24.346 19.7097H27.9592ZM36.6171 31.3921C36.0784 31.6769 35.2664 31.8192 34.1813 31.8192C31.6109 31.8192 30.3257 30.484 30.3257 27.8135V22.3995H28.4094V19.7097H30.3257V17.1586L33.962 16.1196V19.7097H36.6171V22.3995H33.962V27.1786C33.962 28.41 34.4507 29.0256 35.4281 29.0256C35.8128 29.0256 36.2092 28.914 36.6171 28.6909V31.3921ZM49.2114 26.6591H41.5001C41.6233 28.3753 42.7045 29.2334 44.7439 29.2334C46.0445 29.2334 47.1874 28.9256 48.1725 28.3099V30.9419C47.0796 31.5268 45.6597 31.8192 43.9128 31.8192C42.0042 31.8192 40.5227 31.2921 39.4684 30.2377C38.4141 29.1757 37.8869 27.6981 37.8869 25.8049C37.8869 23.8424 38.4564 22.2879 39.5954 21.1412C40.7344 19.9945 42.135 19.4211 43.7973 19.4211C45.5212 19.4211 46.8526 19.9329 47.7915 20.9565C48.7381 21.98 49.2114 23.3691 49.2114 25.1238V26.6591ZM45.8291 24.4196C45.8291 22.7265 45.1441 21.88 43.7743 21.88C43.1894 21.88 42.6814 22.1224 42.2505 22.6072C41.8272 23.0921 41.5694 23.6962 41.477 24.4196H45.8291Z" fill="#A70A13"/>
    <path d="M15.4881 41.5229H10.7666V55.0408H7.02642V41.5229H2.32807V38.4869H15.4881V41.5229ZM23.2917 46.5099C22.853 46.2713 22.3412 46.152 21.7564 46.152C20.9637 46.152 20.3442 46.4445 19.8978 47.0293C19.4514 47.6065 19.2283 48.3954 19.2283 49.3958V55.0408H15.5804V43.2199H19.2283V45.4132H19.2744C19.8516 43.8125 20.8906 43.0121 22.3913 43.0121C22.7761 43.0121 23.0762 43.0583 23.2917 43.1506V46.5099ZM34.8355 55.0408H31.3839V53.3438H31.3378C30.5451 54.6675 29.3715 55.3294 27.8169 55.3294C26.6702 55.3294 25.7659 55.0061 25.1041 54.3597C24.4499 53.7055 24.1229 52.8359 24.1229 51.7508C24.1229 49.4574 25.4812 48.1337 28.1978 47.7797L31.407 47.3526C31.407 46.0597 30.7067 45.4132 29.306 45.4132C27.8977 45.4132 26.5586 45.8326 25.2888 46.6715V43.9241C25.7967 43.6624 26.4893 43.4315 27.3667 43.2314C28.2517 43.0313 29.0559 42.9313 29.7793 42.9313C33.1501 42.9313 34.8355 44.6128 34.8355 47.9759V55.0408ZM31.407 50.2385V49.442L29.2599 49.7191C28.0747 49.873 27.4821 50.4078 27.4821 51.3237C27.4821 51.7392 27.6245 52.0817 27.9092 52.3511C28.2017 52.6127 28.5942 52.7435 29.0867 52.7435C29.7716 52.7435 30.3296 52.5088 30.7606 52.0394C31.1915 51.5622 31.407 50.9619 31.407 50.2385ZM49.1384 55.0408H45.502V48.4723C45.502 46.6407 44.8479 45.7249 43.5396 45.7249C42.9085 45.7249 42.3891 45.9673 41.9812 46.4522C41.5733 46.937 41.3694 47.5527 41.3694 48.2992V55.0408H37.7215V43.2199H41.3694V45.09H41.4155C42.2852 43.6508 43.5511 42.9313 45.2135 42.9313C47.8301 42.9313 49.1384 44.5551 49.1384 47.8028V55.0408ZM51.2624 54.7291V51.7739C51.8627 52.1356 52.4591 52.4049 53.0517 52.5819C53.652 52.7589 54.2176 52.8474 54.7487 52.8474C55.3951 52.8474 55.903 52.7589 56.2725 52.5819C56.6496 52.4049 56.8381 52.1356 56.8381 51.7739C56.8381 51.543 56.7534 51.3506 56.5841 51.1967C56.4148 51.0428 56.1955 50.9081 55.9261 50.7926C55.6645 50.6772 55.3759 50.5733 55.0603 50.481C54.7448 50.3886 54.4408 50.2847 54.1484 50.1693C53.6789 49.9923 53.2634 49.8037 52.9016 49.6036C52.5476 49.3958 52.2475 49.1573 52.0012 48.8879C51.7627 48.6185 51.578 48.3069 51.4471 47.9529C51.324 47.5988 51.2624 47.1794 51.2624 46.6946C51.2624 46.0327 51.4048 45.4632 51.6895 44.9861C51.982 44.5089 52.3668 44.1203 52.8439 43.8202C53.3288 43.5123 53.879 43.2891 54.4947 43.1506C55.1181 43.0044 55.7645 42.9313 56.4341 42.9313C56.9574 42.9313 57.4884 42.9736 58.0271 43.0583C58.5658 43.1352 59.0968 43.2507 59.6202 43.4046V46.2213C59.1584 45.9519 58.662 45.7518 58.131 45.621C57.6077 45.4825 57.0921 45.4132 56.5841 45.4132C56.3456 45.4132 56.1185 45.4363 55.903 45.4825C55.6953 45.5209 55.5106 45.5825 55.3489 45.6672C55.1873 45.7441 55.0603 45.848 54.968 45.9789C54.8756 46.102 54.8295 46.2444 54.8295 46.406C54.8295 46.6215 54.8987 46.8062 55.0373 46.9601C55.1758 47.114 55.3566 47.2487 55.5798 47.3641C55.803 47.4719 56.0493 47.5719 56.3186 47.6643C56.5957 47.7489 56.8689 47.8374 57.1382 47.9298C57.6231 48.0991 58.0617 48.2838 58.4542 48.4839C58.8467 48.684 59.1815 48.9187 59.4586 49.188C59.7433 49.4574 59.9588 49.7729 60.105 50.1346C60.2589 50.4963 60.3359 50.9273 60.3359 51.4275C60.3359 52.1279 60.182 52.7282 59.8741 53.2284C59.574 53.7209 59.17 54.125 58.662 54.4405C58.1618 54.7483 57.5808 54.9715 56.9189 55.11C56.2648 55.2563 55.5837 55.3294 54.8756 55.3294C53.575 55.3294 52.3706 55.1293 51.2624 54.7291ZM64.2954 41.3498C63.6798 41.3498 63.1757 41.1689 62.7832 40.8072C62.3907 40.4378 62.1944 39.9876 62.1944 39.4566C62.1944 38.9102 62.3907 38.4638 62.7832 38.1175C63.1757 37.7712 63.6798 37.598 64.2954 37.598C64.9188 37.598 65.4229 37.7712 65.8077 38.1175C66.2002 38.4638 66.3964 38.9102 66.3964 39.4566C66.3964 40.0107 66.2002 40.4647 65.8077 40.8188C65.4229 41.1728 64.9188 41.3498 64.2954 41.3498ZM66.0963 55.0408H62.4484V43.2199H66.0963V55.0408ZM76.3126 54.9022C75.7738 55.187 74.9619 55.3294 73.8768 55.3294C71.3064 55.3294 70.0212 53.9941 70.0212 51.3237V45.9096H68.1049V43.2199H70.0212V40.6687L73.6575 39.6297V43.2199H76.3126V45.9096H73.6575V50.6887C73.6575 51.9201 74.1462 52.5358 75.1235 52.5358C75.5083 52.5358 75.9047 52.4242 76.3126 52.201V54.9022Z" fill="#57585A"/>
    <path d="M26.3337 58.7486H24.9221V62.7204H24.3967V58.7486H22.9851V58.2162H26.3337V58.7486Z" fill="#A70A13"/>
    <path d="M28.1433 59.9616H28.1168C28.0425 59.9415 27.97 59.9273 27.8992 59.9193C27.8302 59.9092 27.748 59.9042 27.6524 59.9042C27.4985 59.9042 27.3499 59.9435 27.2067 60.0221C27.0634 60.0988 26.9254 60.1986 26.7927 60.3216V62.7204H26.2939V59.3415H26.7927V59.8406C26.9909 59.6591 27.1651 59.5311 27.3155 59.4565C27.4676 59.3798 27.6224 59.3415 27.7798 59.3415C27.8665 59.3415 27.9293 59.3445 27.9682 59.3506C28.0071 59.3546 28.0655 59.3637 28.1433 59.3778V59.9616Z" fill="#A70A13"/>
    <path d="M30.8206 62.7204H30.3244V62.3604C30.2802 62.3947 30.22 62.4431 30.144 62.5056C30.0697 62.5661 29.9972 62.6145 29.9264 62.6508C29.8433 62.6972 29.7477 62.7355 29.6398 62.7658C29.5319 62.7981 29.4055 62.8142 29.2604 62.8142C28.9933 62.8142 28.7669 62.7134 28.5811 62.5117C28.3954 62.31 28.3025 62.0529 28.3025 61.7403C28.3025 61.4842 28.3503 61.2775 28.4458 61.1202C28.5431 60.9609 28.6811 60.8359 28.8597 60.7451C29.0402 60.6544 29.2569 60.5928 29.5098 60.5606C29.7628 60.5283 30.0343 60.5041 30.3244 60.488V60.4003C30.3244 60.2712 30.3041 60.1643 30.2634 60.0796C30.2245 59.9949 30.1679 59.9284 30.0936 59.88C30.0228 59.8336 29.9379 59.8023 29.8388 59.7862C29.7398 59.77 29.6363 59.762 29.5284 59.762C29.3975 59.762 29.2516 59.7821 29.0906 59.8225C28.9296 59.8608 28.7633 59.9173 28.5917 59.9919H28.5652V59.4141C28.6625 59.3839 28.8031 59.3506 28.9871 59.3143C29.1711 59.278 29.3524 59.2598 29.531 59.2598C29.7398 59.2598 29.9211 59.28 30.075 59.3203C30.2307 59.3586 30.3651 59.4252 30.4783 59.52C30.5898 59.6127 30.6747 59.7327 30.733 59.88C30.7914 60.0272 30.8206 60.2097 30.8206 60.4275V62.7204ZM30.3244 61.8885V60.9478C30.1723 60.9579 29.9927 60.973 29.7858 60.9931C29.5806 61.0133 29.4178 61.0426 29.2975 61.0809C29.1543 61.1273 29.0384 61.1999 28.95 61.2987C28.8615 61.3955 28.8173 61.5296 28.8173 61.701C28.8173 61.8946 28.8686 62.0408 28.9712 62.1396C29.0738 62.2364 29.2303 62.2848 29.4408 62.2848C29.616 62.2848 29.776 62.2465 29.9211 62.1699C30.0661 62.0912 30.2006 61.9974 30.3244 61.8885Z" fill="#A70A13"/>
    <path d="M34.2594 62.7204H33.7606V60.7965C33.7606 60.6412 33.7526 60.496 33.7367 60.3609C33.7208 60.2238 33.6916 60.1169 33.6491 60.0403C33.6049 59.9556 33.5412 59.8931 33.4581 59.8527C33.3749 59.8104 33.267 59.7892 33.1344 59.7892C32.9982 59.7892 32.8558 59.8275 32.7072 59.9042C32.5586 59.9808 32.4162 60.0786 32.28 60.1976V62.7204H31.7811V59.3415H32.28V59.7166C32.4356 59.5694 32.5966 59.4544 32.7629 59.3718C32.9292 59.2891 33.0999 59.2477 33.275 59.2477C33.5952 59.2477 33.8393 59.3576 34.0073 59.5775C34.1754 59.7973 34.2594 60.1139 34.2594 60.5273V62.7204Z" fill="#A70A13"/>
    <path d="M37.3373 61.7464C37.3373 62.0549 37.225 62.308 37.0004 62.5056C36.7775 62.7033 36.4723 62.8021 36.0849 62.8021C35.8656 62.8021 35.6639 62.7729 35.48 62.7144C35.2978 62.6539 35.1448 62.5883 35.0209 62.5177V61.8795H35.0475C35.2049 62.0146 35.38 62.1225 35.5728 62.2031C35.7656 62.2818 35.9505 62.3211 36.1274 62.3211C36.3467 62.3211 36.5183 62.2808 36.6422 62.2001C36.766 62.1195 36.8279 61.9924 36.8279 61.819C36.8279 61.6859 36.7943 61.585 36.7271 61.5165C36.6598 61.4479 36.5307 61.3894 36.3397 61.341C36.2689 61.3229 36.176 61.3017 36.0611 61.2775C35.9478 61.2533 35.8444 61.2271 35.7506 61.1988C35.4906 61.1202 35.3057 61.0052 35.1961 60.854C35.0881 60.7007 35.0342 60.5132 35.0342 60.2914C35.0342 60.1522 35.059 60.0211 35.1085 59.8981C35.1598 59.7751 35.2367 59.6652 35.3393 59.5684C35.4384 59.4736 35.564 59.399 35.7161 59.3445C35.87 59.2881 36.0416 59.2598 36.2309 59.2598C36.4078 59.2598 36.5864 59.285 36.7669 59.3355C36.9491 59.3839 37.1003 59.4433 37.2206 59.5139V60.122H37.1941C37.0667 60.0151 36.9119 59.9253 36.7297 59.8527C36.5475 59.7781 36.3689 59.7408 36.1937 59.7408C36.0115 59.7408 35.8576 59.7811 35.732 59.8618C35.6064 59.9405 35.5436 60.0584 35.5436 60.2157C35.5436 60.3549 35.5817 60.4597 35.6577 60.5303C35.732 60.6009 35.8523 60.6584 36.0186 60.7028C36.1106 60.727 36.2132 60.7512 36.3264 60.7754C36.4414 60.7996 36.5369 60.8217 36.613 60.8419C36.8447 60.9024 37.0234 61.0063 37.149 61.1535C37.2745 61.3027 37.3373 61.5003 37.3373 61.7464Z" fill="#A70A13"/>
    <path d="M40.6621 60.9901C40.6621 61.2644 40.6276 61.5155 40.5586 61.7433C40.4896 61.9692 40.3923 62.1608 40.2667 62.3181C40.15 62.4673 40.012 62.5833 39.8528 62.666C39.6953 62.7466 39.5282 62.787 39.3513 62.787C39.1974 62.787 39.0576 62.7678 38.932 62.7295C38.8082 62.6912 38.6817 62.6317 38.5526 62.551V63.9667H38.0538V59.3415H38.5526V59.6954C38.6853 59.5684 38.8339 59.4625 38.9984 59.3778C39.1647 59.2911 39.3415 59.2477 39.5291 59.2477C39.8864 59.2477 40.1641 59.402 40.3622 59.7106C40.5621 60.0171 40.6621 60.4436 40.6621 60.9901ZM40.1473 61.0052C40.1473 60.5979 40.0863 60.2934 39.9642 60.0917C39.8422 59.89 39.6546 59.7892 39.4017 59.7892C39.2584 59.7892 39.1142 59.8245 38.9692 59.8951C38.8241 59.9657 38.6853 60.0584 38.5526 60.1734V62.0882C38.6941 62.1608 38.8153 62.2102 38.9161 62.2364C39.0187 62.2626 39.1346 62.2757 39.2637 62.2757C39.5414 62.2757 39.7581 62.1689 39.9138 61.9551C40.0695 61.7413 40.1473 61.4247 40.1473 61.0052Z" fill="#A70A13"/>
    <path d="M43.9655 61.0325C43.9655 61.583 43.8417 62.0176 43.5941 62.3362C43.3464 62.6549 43.0147 62.8142 42.599 62.8142C42.1798 62.8142 41.8464 62.6549 41.5987 62.3362C41.3528 62.0176 41.2299 61.583 41.2299 61.0325C41.2299 60.4819 41.3528 60.0473 41.5987 59.7287C41.8464 59.4081 42.1798 59.2477 42.599 59.2477C43.0147 59.2477 43.3464 59.4081 43.5941 59.7287C43.8417 60.0473 43.9655 60.4819 43.9655 61.0325ZM43.4508 61.0325C43.4508 60.5949 43.3756 60.2702 43.2252 60.0584C43.0749 59.8447 42.8661 59.7378 42.599 59.7378C42.3284 59.7378 42.1179 59.8447 41.9675 60.0584C41.8189 60.2702 41.7446 60.5949 41.7446 61.0325C41.7446 61.456 41.8198 61.7776 41.9702 61.9974C42.1205 62.2152 42.3302 62.3241 42.599 62.3241C42.8644 62.3241 43.0722 62.2163 43.2226 62.0005C43.3747 61.7827 43.4508 61.46 43.4508 61.0325Z" fill="#A70A13"/>
    <path d="M46.5898 59.9616H46.5632C46.4889 59.9415 46.4164 59.9273 46.3456 59.9193C46.2766 59.9092 46.1944 59.9042 46.0989 59.9042C45.945 59.9042 45.7964 59.9435 45.6531 60.0221C45.5098 60.0988 45.3718 60.1986 45.2392 60.3216V62.7204H44.7403V59.3415H45.2392V59.8406C45.4373 59.6591 45.6115 59.5311 45.7619 59.4565C45.914 59.3798 46.0688 59.3415 46.2262 59.3415C46.3129 59.3415 46.3757 59.3445 46.4146 59.3506C46.4535 59.3546 46.5119 59.3637 46.5898 59.3778V59.9616Z" fill="#A70A13"/>
    <path d="M48.5984 62.6902C48.5046 62.7184 48.402 62.7416 48.2906 62.7597C48.1809 62.7779 48.0827 62.787 47.9961 62.787C47.6936 62.787 47.4636 62.6942 47.3062 62.5087C47.1487 62.3231 47.07 62.0257 47.07 61.6163V59.8195H46.733V59.3415H47.07V58.3705H47.5689V59.3415H48.5984V59.8195H47.5689V61.3592C47.5689 61.5366 47.5724 61.6758 47.5795 61.7766C47.5865 61.8754 47.6113 61.9682 47.6538 62.0549C47.6927 62.1356 47.7457 62.1951 47.813 62.2334C47.882 62.2697 47.9863 62.2878 48.1261 62.2878C48.2074 62.2878 48.2923 62.2747 48.3808 62.2485C48.4692 62.2203 48.5329 62.1971 48.5718 62.1789H48.5984V62.6902Z" fill="#A70A13"/>
    <path d="M52.7244 59.1177C52.7244 58.9261 52.674 58.7758 52.5732 58.6669C52.4741 58.556 52.3467 58.5006 52.1911 58.5006C52.0283 58.5006 51.8957 58.5631 51.7931 58.6881C51.6905 58.8111 51.6392 58.9624 51.6392 59.1419C51.6392 59.2931 51.6737 59.4272 51.7427 59.5442C51.8134 59.6611 51.9647 59.7993 52.1964 59.9586C52.3697 59.888 52.5006 59.7852 52.5891 59.6501C52.6793 59.5129 52.7244 59.3355 52.7244 59.1177ZM53.2392 61.7675L51.9708 60.3579C51.916 60.3882 51.8612 60.4285 51.8063 60.4789C51.7515 60.5273 51.6967 60.5939 51.6418 60.6786C51.5923 60.7572 51.5516 60.852 51.5198 60.9629C51.4879 61.0738 51.472 61.1988 51.472 61.338C51.472 61.6324 51.5472 61.8704 51.6975 62.0519C51.8497 62.2314 52.0646 62.3211 52.3423 62.3211C52.5068 62.3211 52.6696 62.2757 52.8305 62.185C52.9933 62.0922 53.1295 61.9531 53.2392 61.7675ZM54.0378 59.9707V60.2611C54.0378 60.4547 54.0157 60.6725 53.9715 60.9145C53.9273 61.1565 53.8521 61.3874 53.746 61.6072L54.749 62.7204H54.0962L53.4886 62.0428C53.2852 62.3292 53.0773 62.5298 52.865 62.6448C52.6528 62.7577 52.4343 62.8142 52.2097 62.8142C51.8417 62.8142 51.5357 62.6922 51.2916 62.4482C51.0492 62.2021 50.9281 61.8805 50.9281 61.4832C50.9281 61.2977 50.9511 61.1373 50.997 61.0022C51.043 60.8671 51.097 60.7501 51.1589 60.6513C51.2208 60.5565 51.2978 60.4678 51.3898 60.3851C51.4817 60.3004 51.5746 60.2268 51.6684 60.1643C51.4738 60.0191 51.3331 59.8729 51.2465 59.7257C51.1616 59.5785 51.1191 59.3929 51.1191 59.1691C51.1191 59.034 51.1421 58.9059 51.1881 58.7849C51.2359 58.6619 51.3066 58.55 51.4004 58.4491C51.4888 58.3523 51.6038 58.2737 51.7453 58.2132C51.8886 58.1527 52.046 58.1224 52.2176 58.1224C52.5236 58.1224 52.7713 58.2112 52.9606 58.3886C53.1498 58.5641 53.2445 58.7869 53.2445 59.0572C53.2445 59.1459 53.2339 59.2467 53.2126 59.3597C53.1914 59.4706 53.1551 59.5704 53.1038 59.6591C53.0472 59.7579 52.9668 59.8527 52.8624 59.9435C52.758 60.0342 52.6227 60.1119 52.4564 60.1764L53.4408 61.2714C53.4656 61.1908 53.4842 61.102 53.4966 61.0052C53.5089 60.9085 53.516 60.8076 53.5178 60.7028C53.5213 60.5898 53.5222 60.4638 53.5204 60.3246C53.5204 60.1855 53.5204 60.0675 53.5204 59.9707H54.0378Z" fill="#A70A13"/>
    <path d="M59.5118 62.7204H57.0123V58.2162H57.5377V62.188H59.5118V62.7204Z" fill="#A70A13"/>
    <path d="M62.5234 61.0325C62.5234 61.583 62.3996 62.0176 62.1519 62.3362C61.9043 62.6549 61.5726 62.8142 61.1569 62.8142C60.7377 62.8142 60.4042 62.6549 60.1566 62.3362C59.9107 62.0176 59.7878 61.583 59.7878 61.0325C59.7878 60.4819 59.9107 60.0473 60.1566 59.7287C60.4042 59.4081 60.7377 59.2477 61.1569 59.2477C61.5726 59.2477 61.9043 59.4081 62.1519 59.7287C62.3996 60.0473 62.5234 60.4819 62.5234 61.0325ZM62.0087 61.0325C62.0087 60.5949 61.9335 60.2702 61.7831 60.0584C61.6328 59.8447 61.424 59.7378 61.1569 59.7378C60.8863 59.7378 60.6758 59.8447 60.5254 60.0584C60.3768 60.2702 60.3025 60.5949 60.3025 61.0325C60.3025 61.456 60.3777 61.7776 60.5281 61.9974C60.6784 62.2152 60.888 62.3241 61.1569 62.3241C61.4223 62.3241 61.6301 62.2163 61.7805 62.0005C61.9326 61.7827 62.0087 61.46 62.0087 61.0325Z" fill="#A70A13"/>
    <path d="M65.7022 62.3362C65.7022 62.909 65.5881 63.3294 65.3599 63.5977C65.1317 63.8659 64.7806 64 64.3065 64C64.1491 64 63.9952 63.9869 63.8448 63.9607C63.6962 63.9365 63.5494 63.9012 63.4043 63.8548V63.274H63.4309C63.5122 63.3103 63.6414 63.3547 63.8183 63.4071C63.9952 63.4615 64.1721 63.4888 64.349 63.4888C64.5188 63.4888 64.6594 63.4656 64.7708 63.4192C64.8823 63.3728 64.969 63.3083 65.0309 63.2256C65.0928 63.1469 65.137 63.0522 65.1635 62.9412C65.1901 62.8303 65.2034 62.7063 65.2034 62.5692V62.2606C65.053 62.3978 64.9088 62.5006 64.7708 62.5692C64.6346 62.6357 64.4604 62.669 64.2481 62.669C63.8943 62.669 63.6131 62.5238 63.4043 62.2334C63.1974 61.941 63.0939 61.5296 63.0939 60.9992C63.0939 60.7088 63.1293 60.4587 63.2 60.249C63.2726 60.0373 63.3707 59.8547 63.4946 59.7015C63.6095 59.5583 63.7493 59.4474 63.9138 59.3687C64.0783 59.2881 64.2419 59.2477 64.4047 59.2477C64.5763 59.2477 64.7195 59.2679 64.8345 59.3082C64.9513 59.3465 65.0742 59.406 65.2034 59.4867L65.2352 59.3415H65.7022V62.3362ZM65.2034 61.7917V59.9495C65.0707 59.881 64.9469 59.8326 64.8319 59.8043C64.7187 59.7741 64.6054 59.759 64.4922 59.759C64.2181 59.759 64.0022 59.8638 63.8448 60.0736C63.6874 60.2833 63.6087 60.5878 63.6087 60.9871C63.6087 61.3662 63.667 61.6536 63.7838 61.8492C63.9005 62.0448 64.0942 62.1426 64.3649 62.1426C64.5099 62.1426 64.655 62.1114 64.8 62.0489C64.9469 61.9843 65.0813 61.8986 65.2034 61.7917Z" fill="#A70A13"/>
    <path d="M67.2199 58.7758H66.6574V58.186H67.2199V58.7758ZM67.1881 62.7204H66.6893V59.3415H67.1881V62.7204Z" fill="#A70A13"/>
    <path d="M70.2926 61.7464C70.2926 62.0549 70.1802 62.308 69.9556 62.5056C69.7327 62.7033 69.4276 62.8021 69.0402 62.8021C68.8208 62.8021 68.6192 62.7729 68.4352 62.7144C68.253 62.6539 68.1 62.5883 67.9762 62.5177V61.8795H68.0027C68.1601 62.0146 68.3352 62.1225 68.5281 62.2031C68.7209 62.2818 68.9057 62.3211 69.0826 62.3211C69.302 62.3211 69.4736 62.2808 69.5974 62.2001C69.7212 62.1195 69.7831 61.9924 69.7831 61.819C69.7831 61.6859 69.7495 61.585 69.6823 61.5165C69.6151 61.4479 69.4859 61.3894 69.2949 61.341C69.2241 61.3229 69.1313 61.3017 69.0163 61.2775C68.9031 61.2533 68.7996 61.2271 68.7058 61.1988C68.4458 61.1202 68.261 61.0052 68.1513 60.854C68.0434 60.7007 67.9894 60.5132 67.9894 60.2914C67.9894 60.1522 68.0142 60.0211 68.0637 59.8981C68.115 59.7751 68.192 59.6652 68.2946 59.5684C68.3936 59.4736 68.5192 59.399 68.6713 59.3445C68.8252 59.2881 68.9968 59.2598 69.1861 59.2598C69.363 59.2598 69.5417 59.285 69.7221 59.3355C69.9043 59.3839 70.0555 59.4433 70.1758 59.5139V60.122H70.1493C70.0219 60.0151 69.8671 59.9253 69.6849 59.8527C69.5027 59.7781 69.3241 59.7408 69.149 59.7408C68.9668 59.7408 68.8129 59.7811 68.6873 59.8618C68.5617 59.9405 68.4989 60.0584 68.4989 60.2157C68.4989 60.3549 68.5369 60.4597 68.613 60.5303C68.6873 60.6009 68.8076 60.6584 68.9738 60.7028C69.0658 60.727 69.1684 60.7512 69.2816 60.7754C69.3966 60.7996 69.4921 60.8217 69.5682 60.8419C69.7999 60.9024 69.9786 61.0063 70.1042 61.1535C70.2298 61.3027 70.2926 61.5003 70.2926 61.7464Z" fill="#A70A13"/>
    <path d="M72.548 62.6902C72.4542 62.7184 72.3516 62.7416 72.2402 62.7597C72.1305 62.7779 72.0323 62.787 71.9456 62.787C71.6432 62.787 71.4132 62.6942 71.2558 62.5087C71.0983 62.3231 71.0196 62.0257 71.0196 61.6163V59.8195H70.6826V59.3415H71.0196V58.3705H71.5184V59.3415H72.548V59.8195H71.5184V61.3592C71.5184 61.5366 71.522 61.6758 71.5291 61.7766C71.5361 61.8754 71.5609 61.9682 71.6034 62.0549C71.6423 62.1356 71.6953 62.1951 71.7626 62.2334C71.8315 62.2697 71.9359 62.2878 72.0757 62.2878C72.157 62.2878 72.2419 62.2747 72.3304 62.2485C72.4188 62.2203 72.4825 62.1971 72.5214 62.1789H72.548V62.6902Z" fill="#A70A13"/>
    <path d="M73.6889 58.7758H73.1264V58.186H73.6889V58.7758ZM73.6571 62.7204H73.1582V59.3415H73.6571V62.7204Z" fill="#A70A13"/>
    <path d="M76.8359 62.5087C76.6696 62.5994 76.5113 62.67 76.3609 62.7204C76.2123 62.7708 76.054 62.796 75.8859 62.796C75.6719 62.796 75.4755 62.7608 75.2969 62.6902C75.1182 62.6176 74.9652 62.5087 74.8378 62.3635C74.7087 62.2183 74.6088 62.0348 74.538 61.8129C74.4673 61.5911 74.4319 61.3319 74.4319 61.0355C74.4319 60.4829 74.5645 60.0494 74.8299 59.7348C75.097 59.4202 75.449 59.2629 75.8859 59.2629C76.0558 59.2629 76.222 59.2901 76.3848 59.3445C76.5493 59.399 76.6996 59.4655 76.8359 59.5442V60.1764H76.8093C76.6572 60.0413 76.4998 59.9374 76.337 59.8648C76.176 59.7922 76.0186 59.7559 75.8647 59.7559C75.5817 59.7559 75.3579 59.8648 75.1934 60.0826C75.0307 60.2984 74.9493 60.616 74.9493 61.0355C74.9493 61.4429 75.0289 61.7565 75.1881 61.9763C75.3491 62.1941 75.5746 62.303 75.8647 62.303C75.9655 62.303 76.0681 62.2878 76.1725 62.2576C76.2769 62.2273 76.3706 62.188 76.4538 62.1396C76.5263 62.0973 76.5944 62.0529 76.6581 62.0065C76.7218 61.9581 76.7722 61.9168 76.8093 61.8825H76.8359V62.5087Z" fill="#A70A13"/>
    <path d="M78.806 3.26538L53.1941 18.7052L69.541 19.5919L78.806 3.26538Z" fill="#EE1B2C"/>
    <path d="M69.6118 19.7905L78.8058 3.26538V33.3062L69.6118 19.7905Z" fill="#A70A13"/>
    <mask id="path-6-inside-1_936_1048" fill="white">
        <path d="M69.4414 35.2447C72.2031 35.3753 74.9584 34.8822 77.4926 33.8039L75.0705 30.5898C73.3328 31.2026 71.4849 31.4747 69.6333 31.3872C67.4808 31.2854 65.3814 30.7003 63.4989 29.6775C61.6164 28.6546 60.0015 27.2217 58.7802 25.4903C57.717 23.9832 56.9771 22.2853 56.6013 20.4987L52.5374 20.2449C52.9303 22.9136 53.95 25.4577 55.517 27.6791C57.0839 29.9004 59.1558 31.7388 61.571 33.0511C63.9863 34.3635 66.6798 35.1142 69.4414 35.2447Z"/>
    </mask>
    <path d="M77.4926 33.8039L79.3196 38.0978L84.8107 35.7614L81.2193 30.9956L77.4926 33.8039ZM61.571 33.0511L59.3432 37.1514H59.3432L61.571 33.0511ZM55.517 27.6791L51.7038 30.3689L51.7038 30.3689L55.517 27.6791ZM52.5374 20.2449L52.8283 15.5875L47.0819 15.2285L47.9207 20.9247L52.5374 20.2449ZM58.7802 25.4903L62.5934 22.8005V22.8005L58.7802 25.4903ZM63.4989 29.6775L61.2711 33.7778L61.2711 33.7778L63.4989 29.6775ZM69.6333 31.3872L69.8537 26.726L69.8537 26.726L69.6333 31.3872ZM75.0705 30.5898L78.7973 27.7815L76.741 25.0527L73.5187 26.189L75.0705 30.5898ZM56.6013 20.4987L61.1677 19.5381L60.4366 16.0628L56.8922 15.8414L56.6013 20.4987ZM75.6655 29.5101C73.7801 30.3123 71.7249 30.681 69.6618 30.5835L69.2211 39.906C72.6813 40.0696 76.1367 39.4522 79.3196 38.0978L75.6655 29.5101ZM69.6618 30.5835C67.5988 30.486 65.5921 29.9252 63.7989 28.9509L59.3432 37.1514C62.3805 38.8017 65.7607 39.7424 69.2211 39.906L69.6618 30.5835ZM63.7989 28.9509C62.006 27.9767 60.4792 26.6181 59.3301 24.9892L51.7038 30.3689C53.6886 33.1826 56.3055 35.5009 59.3432 37.1514L63.7989 28.9509ZM59.3301 24.9892C58.1815 23.3608 57.4396 21.5042 57.154 19.5651L47.9207 20.9247C48.4211 24.3229 49.7186 27.5546 51.7038 30.3689L59.3301 24.9892ZM54.967 28.1802C56.6062 30.5039 58.7661 32.4167 61.2711 33.7778L65.7267 25.5772C64.4667 24.8925 63.3968 23.9394 62.5934 22.8005L54.967 28.1802ZM61.2711 33.7778C63.7756 35.1386 66.5617 35.9136 69.4129 36.0484L69.8537 26.726C68.3998 26.6572 66.9872 26.2621 65.7267 25.5772L61.2711 33.7778ZM69.4129 36.0484C71.8658 36.1644 74.3156 35.8041 76.6224 34.9907L73.5187 26.189C72.3501 26.6011 71.104 26.7851 69.8537 26.726L69.4129 36.0484ZM81.2193 30.9956L78.7973 27.7815L71.3438 33.3982L73.7658 36.6123L81.2193 30.9956ZM52.0348 21.4594C52.5422 23.8713 53.5398 26.157 54.967 28.1802L62.5934 22.8005C61.8942 21.8094 61.412 20.6993 61.1677 19.5381L52.0348 21.4594ZM52.2464 24.9022L56.3103 25.1561L56.8922 15.8414L52.8283 15.5875L52.2464 24.9022Z" fill="#EE1B2C" mask="url(#path-6-inside-1_936_1048)"/>
    <mask id="path-8-inside-2_936_1048" fill="white">
        <path d="M54.9874 8.63761C53.4787 11.1711 52.6362 14.0395 52.5374 16.9796L56.7413 14.7078C57.0511 13.2687 57.5943 11.8832 58.3544 10.6067C59.5303 8.6321 61.1879 6.98177 63.1749 5.80719C65.1619 4.63261 67.4149 3.97142 69.7269 3.88428C71.1333 3.83128 72.5342 3.99174 73.8822 4.35554L78.1493 1.83995C75.4918 0.529202 72.5446 -0.0991041 69.5783 0.0126901C66.612 0.124484 63.7215 0.972798 61.1721 2.47978C58.6227 3.98676 56.4961 6.10415 54.9874 8.63761Z"/>
    </mask>
    <path d="M52.5374 16.9796L47.8736 16.8227L47.6001 24.9518L54.7558 21.0849L52.5374 16.9796ZM54.9874 8.63761L50.978 6.25L50.978 6.25L54.9874 8.63761ZM61.1721 2.47978L58.7975 -1.53732L61.1721 2.47978ZM69.5783 0.0126901L69.754 4.67582L69.5783 0.0126901ZM78.1493 1.83995L80.5191 5.85984L87.9578 1.47455L80.2135 -2.34513L78.1493 1.83995ZM69.7269 3.88428L69.9026 8.54741L69.7269 3.88428ZM63.1749 5.80719L65.5495 9.82429L65.5495 9.82429L63.1749 5.80719ZM58.3544 10.6067L62.3638 12.9943V12.9943L58.3544 10.6067ZM56.7413 14.7078L58.9598 18.8132L60.8507 17.7913L61.3031 15.6901L56.7413 14.7078ZM73.8822 4.35554L72.6662 8.86077L74.5612 9.37222L76.252 8.37543L73.8822 4.35554ZM57.2012 17.1365C57.2735 14.9852 57.8899 12.8839 58.9968 11.0252L50.978 6.25C49.0675 9.45827 47.999 13.0938 47.8736 16.8227L57.2012 17.1365ZM58.9968 11.0252C60.1038 9.16629 61.667 7.60797 63.5467 6.49688L58.7975 -1.53732C55.5784 0.365551 52.8884 3.042 50.978 6.25L58.9968 11.0252ZM63.5467 6.49688C65.4266 5.38564 67.5611 4.75847 69.754 4.67582L69.4026 -4.65044C65.6629 -4.5095 62.0164 -3.44004 58.7975 -1.53732L63.5467 6.49688ZM69.754 4.67582C71.947 4.59317 74.1242 5.05787 76.0851 6.02502L80.2135 -2.34513C76.8593 -3.99946 73.1422 -4.79138 69.4026 -4.65044L69.754 4.67582ZM69.5511 -0.778845C66.4658 -0.662565 63.4569 0.219772 60.8003 1.79009L65.5495 9.82429C66.867 9.04545 68.3639 8.6054 69.9026 8.54741L69.5511 -0.778845ZM60.8003 1.79009C58.1436 3.36055 55.9227 5.56995 54.345 8.21913L62.3638 12.9943C63.138 11.6942 64.2322 10.603 65.5495 9.82429L60.8003 1.79009ZM54.345 8.21913C53.3252 9.93161 52.5957 11.7919 52.1794 13.7256L61.3031 15.6901C61.5065 14.7455 61.8633 13.8347 62.3638 12.9943L54.345 8.21913ZM54.7558 21.0849L58.9598 18.8132L54.5228 10.6025L50.3189 12.8742L54.7558 21.0849ZM75.0981 -0.149691C73.2983 -0.635458 71.4283 -0.84959 69.5511 -0.778845L69.9026 8.54741C70.8384 8.51215 71.7702 8.61893 72.6662 8.86077L75.0981 -0.149691ZM75.7795 -2.17995L71.5123 0.335645L76.252 8.37543L80.5191 5.85984L75.7795 -2.17995Z" fill="#57585A" mask="url(#path-8-inside-2_936_1048)"/>
    <mask id="path-10-inside-3_936_1048" fill="white">
        <path d="M85.9371 9.27926C84.5346 6.64243 82.2136 4.26358 79.7012 2.61218L79.7012 7.53939C80.791 8.57071 81.7089 9.77232 82.4155 11.1008C83.5087 13.156 84.0609 15.4491 84.0214 17.7695C83.982 20.0899 83.3523 22.3635 82.19 24.3814C81.4829 25.609 80.5926 26.718 79.5532 27.6735L79.4626 32.653C82.0297 31.0855 84.1564 28.9073 85.6477 26.3183C87.1389 23.7292 87.9469 20.8123 87.9974 17.8352C88.048 14.8581 87.3395 11.9161 85.9371 9.27926Z"/>
    </mask>
    <path d="M85.9371 9.27926L90.057 7.08796V7.08795L85.9371 9.27926ZM79.7012 2.61218L82.2643 -1.2873L75.0347 -6.03935L75.0348 2.61219L79.7012 2.61218ZM79.7012 7.53939L75.0348 7.5394L75.0348 9.54802L76.4937 10.9287L79.7012 7.53939ZM82.4155 11.1008L86.5355 8.90952L82.4155 11.1008ZM84.0214 17.7695L79.3557 17.6903L79.3557 17.6903L84.0214 17.7695ZM82.19 24.3814L78.1463 22.0523L78.1463 22.0523L82.19 24.3814ZM79.5532 27.6735L76.3951 24.2381L74.9239 25.5906L74.8875 27.5887L79.5532 27.6735ZM79.4626 32.653L74.797 32.5681L74.6425 41.0639L81.8945 36.6357L79.4626 32.653ZM85.6477 26.3183L81.604 23.9892H81.604L85.6477 26.3183ZM87.9974 17.8352L83.3317 17.7559V17.7559L87.9974 17.8352ZM90.057 7.08795C88.2331 3.65879 85.3275 0.726102 82.2643 -1.2873L77.138 6.51166C79.0997 7.80106 80.8361 9.62606 81.8171 11.4706L90.057 7.08795ZM75.0348 2.61219L75.0348 7.5394L84.3676 7.53938L84.3676 2.61217L75.0348 2.61219ZM76.4937 10.9287C77.2194 11.6155 77.8282 12.4133 78.2956 13.2921L86.5355 8.90952C85.5897 7.13138 84.3625 5.52594 82.9087 4.1501L76.4937 10.9287ZM78.2956 13.2921C79.0185 14.6512 79.3816 16.1632 79.3557 17.6903L88.6872 17.8488C88.7401 14.7349 87.9989 11.6609 86.5355 8.90952L78.2956 13.2921ZM79.3557 17.6903C79.3297 19.2173 78.9154 20.7171 78.1463 22.0523L86.2336 26.7105C87.7891 24.0099 88.6343 20.9626 88.6872 17.8488L79.3557 17.6903ZM78.1463 22.0523C77.6783 22.8649 77.0875 23.6016 76.3951 24.2381L82.7113 31.1089C84.0977 29.8344 85.2876 28.353 86.2336 26.7105L78.1463 22.0523ZM74.8875 27.5887L74.797 32.5681L84.1283 32.7379L84.2189 27.7584L74.8875 27.5887ZM81.8945 36.6357C85.1242 34.6636 87.8071 31.9186 89.6913 28.6473L81.604 23.9892C80.5057 25.896 78.9352 27.5075 77.0308 28.6703L81.8945 36.6357ZM89.6913 28.6473C91.5757 25.3756 92.5992 21.6849 92.6632 17.9144L83.3317 17.7559C83.2946 19.9397 82.702 22.0828 81.604 23.9892L89.6913 28.6473ZM92.6632 17.9144C92.7272 14.1439 91.8297 10.4209 90.057 7.08796L81.8171 11.4706C82.8493 13.4113 83.3688 15.5722 83.3317 17.7559L92.6632 17.9144Z" fill="#EE1B2C" mask="url(#path-10-inside-3_936_1048)"/>
</svg>
