<svg width="40" height="40" viewBox="0 0 40 40" fill="none" xmlns="http://www.w3.org/2000/svg">
    <g clip-path="url(#clip0_533_3625)">
        <path d="M28.6666 10H12.6666C9.35292 10 6.66663 12.6863 6.66663 16V24C6.66663 27.3137 9.35292 30 12.6666 30H28.6666C31.9803 30 34.6666 27.3137 34.6666 24V16C34.6666 12.6863 31.9803 10 28.6666 10Z" fill="#00ABC2"/>
        <circle cx="24.5641" cy="17.3523" r="3.84923" fill="#FFEC2D"/>
        <path d="M24.6146 11.3078L24.9069 12.672C24.9468 12.8581 24.8049 13.0336 24.6146 13.0336C24.4242 13.0336 24.2824 12.8581 24.3222 12.672L24.6146 11.3078Z" fill="#FFEC2D"/>
        <path d="M23.4357 11.4132L23.9973 12.6903C24.0739 12.8646 23.9703 13.0651 23.7839 13.1035C23.5975 13.1419 23.4231 12.9986 23.4246 12.8083L23.4357 11.4132Z" fill="#FFEC2D"/>
        <path d="M22.3381 11.7543L23.1192 12.9104C23.2257 13.0681 23.1598 13.2839 22.9832 13.355C22.8067 13.4262 22.6095 13.3164 22.5769 13.1289L22.3381 11.7543Z" fill="#FFEC2D"/>
        <path d="M21.2781 12.3409L22.3137 13.2758C22.4549 13.4034 22.4426 13.6287 22.2883 13.7401C22.134 13.8515 21.9162 13.7923 21.8396 13.6181L21.2781 12.3409Z" fill="#FFEC2D"/>
        <path d="M20.4485 13.0226L21.5885 13.8269C21.7441 13.9366 21.7588 14.1618 21.619 14.2909C21.4791 14.42 21.2558 14.3872 21.1589 14.2234L20.4485 13.0226Z" fill="#FFEC2D"/>
        <path d="M19.6018 14.0103L20.9148 14.482C21.0939 14.5464 21.1681 14.7595 21.0677 14.9212C20.9672 15.0828 20.7433 15.1107 20.6062 14.9786L19.6018 14.0103Z" fill="#FFEC2D"/>
        <path d="M19.0706 14.993L20.4425 15.2471C20.6296 15.2818 20.7372 15.4802 20.664 15.656C20.5909 15.8317 20.3744 15.8953 20.2179 15.7869L19.0706 14.993Z" fill="#FFEC2D"/>
        <path d="M18.7089 16.1389L20.104 16.1219C20.2943 16.1195 20.4383 16.2933 20.4007 16.4799C20.3631 16.6664 20.163 16.7709 19.9885 16.695L18.7089 16.1389Z" fill="#FFEC2D"/>
        <path d="M18.6359 17.3174L20.0001 17.025C20.1862 16.9852 20.3617 17.127 20.3617 17.3174C20.3617 17.5077 20.1862 17.6496 20.0001 17.6097L18.6359 17.3174Z" fill="#FFEC2D"/>
        <path d="M18.7412 18.4962L20.0183 17.9346C20.1926 17.858 20.3931 17.9615 20.4315 18.148C20.4699 18.3344 20.3266 18.5088 20.1363 18.5072L18.7412 18.4962Z" fill="#FFEC2D"/>
        <path d="M19.0826 19.5941L20.2386 18.813C20.3964 18.7064 20.6122 18.7724 20.6833 18.949C20.7544 19.1255 20.6447 19.3227 20.4572 19.3553L19.0826 19.5941Z" fill="#FFEC2D"/>
        <path d="M19.6692 20.6541L20.6041 19.6185C20.7317 19.4773 20.957 19.4896 21.0684 19.6439C21.1798 19.7982 21.1206 20.016 20.9463 20.0926L19.6692 20.6541Z" fill="#FFEC2D"/>
        <path d="M20.3509 21.4834L21.1552 20.3433C21.2649 20.1878 21.4901 20.1731 21.6192 20.3129C21.7482 20.4528 21.7155 20.6761 21.5517 20.773L20.3509 21.4834Z" fill="#FFEC2D"/>
        <path d="M21.3386 22.3305L21.8103 21.0174C21.8747 20.8383 22.0878 20.7641 22.2494 20.8646C22.4111 20.965 22.439 21.189 22.3069 21.326L21.3386 22.3305Z" fill="#FFEC2D"/>
        <path d="M22.3214 22.8612L22.5755 21.4894C22.6102 21.3023 22.8086 21.1947 22.9844 21.2678C23.1601 21.341 23.2237 21.5575 23.1153 21.714L22.3214 22.8612Z" fill="#FFEC2D"/>
        <path d="M23.4669 23.223L23.4499 21.8279C23.4476 21.6376 23.6213 21.4936 23.8079 21.5312C23.9945 21.5688 24.0989 21.7689 24.0231 21.9435L23.4669 23.223Z" fill="#FFEC2D"/>
        <path d="M24.6457 23.2961L24.3534 21.9319C24.3135 21.7458 24.4554 21.5703 24.6457 21.5703C24.836 21.5703 24.9779 21.7458 24.938 21.9319L24.6457 23.2961Z" fill="#FFEC2D"/>
        <path d="M25.8239 23.1907L25.2624 21.9135C25.1858 21.7393 25.2893 21.5388 25.4757 21.5004C25.6621 21.462 25.8365 21.6053 25.835 21.7956L25.8239 23.1907Z" fill="#FFEC2D"/>
        <path d="M26.9221 22.8495L26.1411 21.6935C26.0345 21.5358 26.1005 21.32 26.277 21.2488C26.4536 21.1777 26.6508 21.2874 26.6833 21.475L26.9221 22.8495Z" fill="#FFEC2D"/>
        <path d="M27.9821 22.263L26.9466 21.328C26.8053 21.2005 26.8176 20.9751 26.9719 20.8637C27.1263 20.7523 27.344 20.8116 27.4206 20.9858L27.9821 22.263Z" fill="#FFEC2D"/>
        <path d="M28.8117 21.5812L27.6717 20.777C27.5162 20.6672 27.5014 20.4421 27.6413 20.313C27.7812 20.1839 28.0045 20.2166 28.1014 20.3805L28.8117 21.5812Z" fill="#FFEC2D"/>
        <path d="M29.6585 20.5935L28.3454 20.1218C28.1663 20.0575 28.0921 19.8443 28.1926 19.6827C28.293 19.521 28.517 19.4931 28.654 19.6252L29.6585 20.5935Z" fill="#FFEC2D"/>
        <path d="M30.1896 19.6109L28.8178 19.3567C28.6306 19.322 28.5231 19.1236 28.5962 18.9479C28.6693 18.7722 28.8859 18.7086 29.0424 18.8169L30.1896 19.6109Z" fill="#FFEC2D"/>
        <path d="M30.5513 18.465L29.1563 18.482C28.9659 18.4844 28.8219 18.3106 28.8595 18.124C28.8971 17.9374 29.0972 17.833 29.2718 17.9089L30.5513 18.465Z" fill="#FFEC2D"/>
        <path d="M30.6244 17.2865L29.2602 17.5788C29.0741 17.6187 28.8986 17.4768 28.8986 17.2865C28.8986 17.0962 29.0741 16.9543 29.2602 16.9942L30.6244 17.2865Z" fill="#FFEC2D"/>
        <path d="M30.5191 16.1077L29.2419 16.6693C29.0677 16.7459 28.8672 16.6423 28.8288 16.4559C28.7904 16.2695 28.9336 16.0951 29.1239 16.0966L30.5191 16.1077Z" fill="#FFEC2D"/>
        <path d="M30.1782 15.0101L29.0221 15.7912C28.8644 15.8977 28.6486 15.8317 28.5774 15.6552C28.5063 15.4786 28.616 15.2815 28.8036 15.2489L30.1782 15.0101Z" fill="#FFEC2D"/>
        <path d="M29.5911 13.9498L28.6561 14.9853C28.5286 15.1266 28.3033 15.1143 28.1918 14.96C28.0804 14.8057 28.1397 14.5879 28.3139 14.5113L29.5911 13.9498Z" fill="#FFEC2D"/>
        <path d="M28.9099 13.1205L28.1056 14.2605C27.9959 14.416 27.7707 14.4308 27.6416 14.2909C27.5125 14.151 27.5453 13.9278 27.7091 13.8309L28.9099 13.1205Z" fill="#FFEC2D"/>
        <path d="M27.9215 12.2734L27.4498 13.5864C27.3855 13.7656 27.1724 13.8398 27.0107 13.7393C26.849 13.6388 26.8211 13.4149 26.9532 13.2779L27.9215 12.2734Z" fill="#FFEC2D"/>
        <path d="M26.9389 11.7426L26.6847 13.1145C26.65 13.3016 26.4516 13.4092 26.2759 13.336C26.1002 13.2629 26.0366 13.0464 26.1449 12.8899L26.9389 11.7426Z" fill="#FFEC2D"/>
        <path d="M25.7927 11.3808L25.8097 12.7759C25.812 12.9662 25.6383 13.1102 25.4517 13.0726C25.2651 13.035 25.1607 12.8349 25.2366 12.6604L25.7927 11.3808Z" fill="#FFEC2D"/>
        <path d="M18.6356 24.0896C19.1903 24.4409 20.6311 24.8986 21.3707 24.9987C20.7389 24.7933 19.423 24.3238 19.2134 24.0896C19.3573 24.0228 19.6141 23.8861 19.4908 23.8738C19.3367 23.8584 18.8436 23.6889 18.8205 23.6196C18.7974 23.5502 19.0208 23.3807 18.99 23.3807C18.9592 23.3807 18.6356 23.2883 18.574 23.2189C18.5247 23.1635 18.6356 23.0366 18.6972 22.9801C18.6228 22.957 18.463 22.9015 18.4199 22.8645C18.3767 22.8275 18.4019 22.6591 18.4199 22.5795C18.1548 22.5301 17.8318 22.2764 17.7034 22.1557C17.8497 22.1403 18.1209 22.1095 18.0346 22.1095C17.9268 22.1095 17.503 21.6087 17.5107 21.5316C17.5184 21.4546 17.8112 21.5625 17.8729 21.4777C17.9345 21.393 17.4953 20.792 17.5647 20.715C17.634 20.6379 17.8112 20.7997 17.8729 20.792C17.9345 20.7843 17.8189 20.6764 17.9884 20.5994C18.2257 20.4915 19.2807 22.1095 19.876 22.5795C20.1688 22.8106 20.5796 22.8521 20.7929 22.9801C21.1396 23.1881 21.7736 23.9255 21.9871 23.9817C22.2798 24.0587 23.3893 24.1204 23.6281 24.1358C23.8192 24.1481 24.0981 24.3361 24.2137 24.4285L24.4448 23.9278C22.7489 23.7896 22.2759 23.5398 20.681 22.6974L20.6619 22.6874C19.9762 22.3252 18.651 20.7073 18.3736 19.9214C18.2023 19.436 17.9653 18.419 17.7727 18.419C17.557 18.419 17.6366 19.3076 17.7034 19.7519C17.6032 19.698 17.1949 17.8797 16.956 17.8797C16.3165 17.9645 17.5184 20.322 17.4106 20.3066C17.3027 20.2912 16.4552 18.758 16.0931 18.9352C15.8034 19.077 16.825 20.4376 17.3721 21.1002C17.2411 21.1002 16.1717 19.8551 15.9005 19.9907C15.6293 20.1263 16.7942 21.2697 17.4106 21.8244C17.2873 21.8244 16.9329 21.732 16.5554 21.4777C16.6725 22.0016 17.6417 22.4716 18.1117 22.6411C18.0116 22.6873 17.5191 22.6873 17.2339 22.6874H17.2334C17.3798 22.9647 18.3736 23.0418 18.3736 23.1111C18.3736 23.1804 17.973 23.2035 17.7111 23.2575C17.8497 23.3576 18.6048 23.4809 18.574 23.5117C18.5493 23.5364 18.2966 23.6401 18.1733 23.6889C18.312 23.8045 19.0439 23.9278 19.0208 23.9278C19.0023 23.9278 18.7563 24.0356 18.6356 24.0896Z" fill="#FFEC2D"/>
        <path d="M30.2001 24.3669C29.4974 24.9278 28.4332 25.0269 27.9889 25.0064C28.6052 25.0064 29.2473 24.5623 29.4912 24.3403L29.5375 24.2205L29.4912 24.0279H29.7455C29.8457 24.0279 29.8842 23.9278 29.8996 23.8738C29.915 23.8198 29.7224 23.6735 29.8457 23.6658C29.9689 23.6581 30.2463 23.5194 30.2771 23.4424C30.3079 23.3653 30.1538 23.3114 30.2771 23.2806C30.3757 23.2559 30.6264 23.0956 30.7394 23.0186L30.5853 22.9185L31.3866 22.3791C31.2402 22.3637 30.9859 22.3175 31.14 22.2559C31.3326 22.1788 31.5638 21.7474 31.5098 21.6857C31.4667 21.6364 31.2042 21.732 31.0784 21.7859C31.3711 21.4546 31.4405 21.1541 31.3866 21.0462C30.536 20.9172 29.7686 21.9889 29.4912 22.5409L27.9118 23.3114C27.3956 23.5502 27.3725 23.7274 27.1645 23.9817C26.8563 24.068 25.5054 24.3155 24.8685 24.4285C24.3651 24.8117 23.5111 25.4258 22.9886 25.7024V25.7845C22.9784 25.7922 22.9547 25.8076 22.9424 25.8076H22.8962V25.7495C22.6984 25.8457 22.5642 25.8784 22.5418 25.8076C22.4617 25.5549 22.945 25.3479 23.1967 25.276C23.6713 25.1343 24.2137 24.7906 24.9687 23.8738C26.6791 23.7582 28.9801 23.2189 30.6392 20.3451C31.0707 19.5978 31.1785 18.5034 31.4482 18.4344C31.7795 18.3497 31.479 19.6672 31.5098 19.7827C31.8796 19.305 32.08 17.8465 32.2649 17.8643C32.6655 17.9028 32.08 19.8521 31.8026 20.2758C32.2186 19.9137 32.8119 18.6887 33.1201 18.966C33.3666 19.1879 32.3445 20.4813 31.8026 21.1002C32.288 20.8691 33.1817 19.9368 33.2973 20.0216C33.5538 20.2097 32.3779 21.3056 31.8026 21.7859C32.0029 21.8244 32.6719 21.393 32.6809 21.4931C32.7271 22.0093 31.271 22.7567 31.3866 22.7952C31.5021 22.8337 31.8411 22.8183 31.8026 22.9185C31.7641 23.0186 30.6931 23.3576 30.7394 23.373C30.7856 23.3884 31.3557 23.3499 31.3326 23.4424C31.3141 23.5163 30.6572 23.6838 30.331 23.7582C30.5236 23.7814 31.0938 23.8507 30.7933 23.9278C30.5073 24.0012 29.7994 24.0587 29.7994 24.182C29.7994 24.219 30.0665 24.3207 30.2001 24.3669Z" fill="#FFEC2D"/>
        <path d="M23.1581 25.6612L23.9055 25.4995L23.6281 25.7229L23.7976 25.7495C23.6682 25.8386 23.6307 25.964 23.6281 26.0157C23.6281 26.1158 24.9841 26.0542 25.2769 26.162C25.1474 26.1312 24.0313 26.1492 23.4894 26.162L22.8037 26.2006L22.511 26.293C22.5341 26.2571 22.5664 26.1805 22.511 26.162C22.4555 26.1435 22.2824 26.2622 22.2028 26.3238C22.1658 26.0157 22.3723 25.8616 22.4801 25.823C22.5135 25.8436 22.5895 25.8847 22.6265 25.8847C22.6728 25.8847 22.8346 25.8539 22.8423 25.8847C22.85 25.9155 22.9655 25.9155 23.0349 25.8847C23.0903 25.86 23.1402 25.7254 23.1581 25.6612Z" fill="#FFEC2D"/>
        <path d="M28.4588 25.9617C29.1245 26.3315 29.3474 25.9155 29.3757 25.6612L27.072 25.5842C27.0782 25.7506 26.8846 25.8539 26.787 25.8847C26.7438 26.2545 26.1526 26.3572 25.8624 26.3624L24.5912 26.3932L24.0365 26.4471C23.7899 26.5884 23.3215 26.9032 23.4201 27.0326C23.5187 27.1621 23.9594 26.8965 24.1674 26.7476C24.038 27.4009 24.509 26.989 24.7607 26.7014C24.7237 27.4841 25.1562 27.0275 25.377 26.7014C25.3894 27.404 25.7571 26.9941 25.9395 26.7014C26.1367 27.2006 26.4223 26.9094 26.5404 26.7014C26.8332 27.0404 26.9719 26.8323 27.2492 26.4856C27.391 27.0157 27.6833 26.5986 27.8117 26.3238C28.3972 26.7245 28.4871 26.2494 28.4588 25.9617Z" fill="#FFEC2D"/>
        <path d="M8.20543 10.337C8.20543 10.7068 8.58081 11.693 8.15851 12.1399C8.34881 12.0911 8.71063 11.8733 8.63556 11.3925C8.67987 11.3848 8.77476 11.3817 8.79978 11.4311C8.83107 11.4927 8.82325 11.2924 8.7294 11.1768C8.77372 11.1511 8.83782 11.1237 8.87017 11.1768C8.91709 11.2539 8.84671 10.9842 8.77632 10.9688C8.95619 10.9816 9.31593 10.9133 9.31593 10.5373C9.31593 10.1614 9.01876 10.1187 8.87017 10.1444V10.0365C8.83889 10.0828 8.77632 10.1829 8.77632 10.2137C8.77632 10.2446 8.69812 10.278 8.65902 10.2908L8.63556 10.337C8.68248 10.3576 8.77632 10.4033 8.77632 10.4218C8.77632 10.4449 8.79196 10.5759 8.83107 10.5836C8.86235 10.5897 8.8806 10.545 8.88581 10.5219C8.87799 10.4962 8.86704 10.4403 8.88581 10.4218C8.90927 10.3987 8.94837 10.3987 8.98747 10.391C9.02658 10.3832 9.13606 10.4064 9.13606 10.5219C9.13606 10.6375 9.1126 10.7531 8.88581 10.7531C8.65902 10.7531 8.54171 10.6067 8.54171 10.3755C8.54171 10.1444 8.68248 9.89016 8.98747 9.89016C9.29247 9.89016 9.48016 10.052 9.48016 10.3755C9.48016 10.8686 8.0021 13.1029 8.0021 13.804C7.98125 14.066 8.10689 14.5899 8.77632 14.5899C9.44575 14.5899 9.65482 14.2252 9.67567 14.0429C9.69653 14.2252 9.91341 14.5899 10.5828 14.5899C11.2523 14.5899 11.3779 14.066 11.3571 13.804C11.3571 13.1029 9.879 10.8686 9.879 10.3755C9.879 10.052 10.0667 9.89016 10.3717 9.89016C10.6767 9.89016 10.8175 10.1444 10.8175 10.3755C10.8175 10.6067 10.7001 10.7531 10.4734 10.7531C10.2466 10.7531 10.2231 10.6375 10.2231 10.5219C10.2231 10.4064 10.3326 10.3832 10.3717 10.391C10.4108 10.3987 10.4499 10.3987 10.4734 10.4218C10.4921 10.4403 10.4812 10.4962 10.4734 10.5219C10.4786 10.545 10.4968 10.5897 10.5281 10.5836C10.5672 10.5759 10.5828 10.4449 10.5828 10.4218C10.5828 10.4033 10.6767 10.3576 10.7236 10.337L10.7001 10.2908C10.661 10.278 10.5828 10.2446 10.5828 10.2137C10.5828 10.1829 10.5203 10.0828 10.489 10.0365V10.1444C10.3404 10.1187 10.0432 10.1614 10.0432 10.5373C10.0432 10.9133 10.403 10.9816 10.5828 10.9688C10.5125 10.9842 10.4421 11.2539 10.489 11.1768C10.5213 11.1237 10.5854 11.1511 10.6298 11.1768C10.5359 11.2924 10.5281 11.4927 10.5594 11.4311C10.5844 11.3817 10.6793 11.3848 10.7236 11.3925C10.6485 11.8733 11.0104 12.0911 11.2007 12.1399C10.7784 11.693 11.1537 10.7068 11.1537 10.337C11.1537 10.1444 10.9864 9.84393 10.8175 9.78229C10.9295 9.76689 11.1537 9.71449 11.1537 9.6282H10.2231C10.0902 9.64875 9.78829 9.73915 9.67567 9.93638C9.56306 9.73915 9.26901 9.64875 9.13606 9.6282H8.20543C8.20543 9.71449 8.42962 9.76689 8.54171 9.78229C8.37279 9.84393 8.20543 10.1444 8.20543 10.337Z" fill="#FFEC2D"/>
        <path d="M8.33838 13.8042C8.33838 13.5392 9.22991 11.6598 9.67567 10.7532C10.1214 11.6598 11.0208 13.5392 11.0208 13.8042C11.0208 14.1355 10.7549 14.2665 10.5828 14.2665C10.4108 14.2665 10.0902 14.1432 10.0902 13.9044C10.0902 13.7133 10.2257 13.6964 10.2935 13.7118C10.3534 13.7212 10.4734 13.7915 10.4734 13.9968C10.6063 13.9044 10.6767 13.8042 10.7001 13.7118C10.7523 13.6964 10.8581 13.6517 10.8644 13.5962C10.8706 13.5407 10.7419 13.4858 10.6767 13.4652C10.661 13.3651 10.5985 13.1647 10.4734 13.1647C10.4812 13.2315 10.4749 13.3589 10.4499 13.3959C10.3717 13.5114 10.0198 13.3574 9.879 13.5731V12.7718C9.879 12.6717 10.037 12.5607 10.2935 12.6717C10.2961 12.551 10.1965 12.3095 9.77734 12.3095C9.99631 12.14 9.9009 11.7533 9.67567 11.5314C9.45044 11.7533 9.36285 12.14 9.58183 12.3095C9.16265 12.3095 9.06307 12.551 9.06568 12.6717C9.32219 12.5607 9.48016 12.6717 9.48016 12.7718V13.5731C9.33939 13.3574 8.98747 13.5114 8.90927 13.3959C8.88424 13.3589 8.87799 13.2315 8.88581 13.1647C8.76068 13.1647 8.69812 13.3651 8.68248 13.4652C8.61731 13.4858 8.48853 13.5407 8.49479 13.5962C8.50104 13.6517 8.60688 13.6964 8.65902 13.7118C8.68248 13.8042 8.75286 13.9044 8.88581 13.9968C8.88581 13.7915 9.00572 13.7212 9.06568 13.7118C9.13346 13.6964 9.26901 13.7133 9.26901 13.9044C9.26901 14.1432 8.94837 14.2665 8.77632 14.2665C8.60427 14.2665 8.33838 14.1355 8.33838 13.8042Z" fill="#00ABC2"/>
        <path d="M8.20543 18.8429C8.20543 18.4731 8.58081 17.487 8.15851 17.0401C8.34881 17.0889 8.71063 17.3067 8.63556 17.7874C8.67987 17.7951 8.77476 17.7982 8.79978 17.7489C8.83107 17.6873 8.82325 17.8876 8.7294 18.0032C8.77372 18.0288 8.83782 18.0563 8.87017 18.0032C8.91709 17.9261 8.84671 18.1958 8.77632 18.2112C8.95619 18.1983 9.31593 18.2666 9.31593 18.6426C9.31593 19.0186 9.01876 19.0612 8.87017 19.0356V19.1434C8.83889 19.0972 8.77632 18.997 8.77632 18.9662C8.77632 18.9354 8.69812 18.902 8.65902 18.8892L8.63556 18.8429C8.68248 18.8224 8.77632 18.7767 8.77632 18.7582C8.77632 18.7351 8.79196 18.6041 8.83107 18.5964C8.86235 18.5902 8.8806 18.6349 8.88581 18.658C8.87799 18.6837 8.86704 18.7397 8.88581 18.7582C8.90927 18.7813 8.94837 18.7813 8.98747 18.789C9.02658 18.7967 9.13606 18.7736 9.13606 18.658C9.13606 18.5425 9.1126 18.4269 8.88581 18.4269C8.65902 18.4269 8.54171 18.5733 8.54171 18.8044C8.54171 19.0356 8.68248 19.2898 8.98747 19.2898C9.29247 19.2898 9.48016 19.128 9.48016 18.8044C9.48016 18.3113 8.0021 16.077 8.0021 15.3759C7.98125 15.114 8.10689 14.5901 8.77632 14.5901C9.44575 14.5901 9.65482 14.9547 9.67567 15.1371C9.69653 14.9547 9.91341 14.5901 10.5828 14.5901C11.2523 14.5901 11.3779 15.114 11.3571 15.3759C11.3571 16.077 9.879 18.3113 9.879 18.8044C9.879 19.128 10.0667 19.2898 10.3717 19.2898C10.6767 19.2898 10.8175 19.0356 10.8175 18.8044C10.8175 18.5733 10.7001 18.4269 10.4734 18.4269C10.2466 18.4269 10.2231 18.5425 10.2231 18.658C10.2231 18.7736 10.3326 18.7967 10.3717 18.789C10.4108 18.7813 10.4499 18.7813 10.4734 18.7582C10.4921 18.7397 10.4812 18.6837 10.4734 18.658C10.4786 18.6349 10.4968 18.5902 10.5281 18.5964C10.5672 18.6041 10.5828 18.7351 10.5828 18.7582C10.5828 18.7767 10.6767 18.8224 10.7236 18.8429L10.7001 18.8892C10.661 18.902 10.5828 18.9354 10.5828 18.9662C10.5828 18.997 10.5203 19.0972 10.489 19.1434V19.0356C10.3404 19.0612 10.0432 19.0186 10.0432 18.6426C10.0432 18.2666 10.403 18.1983 10.5828 18.2112C10.5125 18.1958 10.4421 17.9261 10.489 18.0032C10.5213 18.0563 10.5854 18.0288 10.6298 18.0032C10.5359 17.8876 10.5281 17.6873 10.5594 17.7489C10.5844 17.7982 10.6793 17.7951 10.7236 17.7874C10.6485 17.3067 11.0104 17.0889 11.2007 17.0401C10.7784 17.487 11.1537 18.4731 11.1537 18.8429C11.1537 19.0356 10.9864 19.336 10.8175 19.3977C10.9295 19.4131 11.1537 19.4655 11.1537 19.5518H10.2231C10.0902 19.5312 9.78829 19.4408 9.67567 19.2436C9.56306 19.4408 9.26901 19.5312 9.13606 19.5518H8.20543C8.20543 19.4655 8.42962 19.4131 8.54171 19.3977C8.37279 19.336 8.20543 19.0356 8.20543 18.8429Z" fill="#FFEC2D"/>
        <path d="M8.33838 15.376C8.33838 15.641 9.22991 17.5204 9.67567 18.4269C10.1214 17.5204 11.0208 15.641 11.0208 15.376C11.0208 15.0447 10.7549 14.9137 10.5828 14.9137C10.4108 14.9137 10.0902 15.037 10.0902 15.2758C10.0902 15.4669 10.2257 15.4838 10.2935 15.4684C10.3534 15.4589 10.4734 15.3887 10.4734 15.1833C10.6063 15.2758 10.6767 15.376 10.7001 15.4684C10.7523 15.4838 10.8581 15.5285 10.8644 15.584C10.8706 15.6395 10.7419 15.6944 10.6767 15.715C10.661 15.8151 10.5985 16.0154 10.4734 16.0154C10.4812 15.9487 10.4749 15.8213 10.4499 15.7843C10.3717 15.6687 10.0198 15.8228 9.879 15.6071V16.4084C9.879 16.5085 10.037 16.6195 10.2935 16.5085C10.2961 16.6292 10.1965 16.8706 9.77734 16.8706C9.99631 17.0401 9.9009 17.4269 9.67567 17.6488C9.45044 17.4269 9.36285 17.0401 9.58183 16.8706C9.16265 16.8706 9.06307 16.6292 9.06568 16.5085C9.32219 16.6195 9.48016 16.5085 9.48016 16.4084V15.6071C9.33939 15.8228 8.98747 15.6687 8.90927 15.7843C8.88424 15.8213 8.87799 15.9487 8.88581 16.0154C8.76068 16.0154 8.69812 15.8151 8.68248 15.715C8.61731 15.6944 8.48853 15.6395 8.49479 15.584C8.50104 15.5285 8.60688 15.4838 8.65902 15.4684C8.68248 15.376 8.75286 15.2758 8.88581 15.1833C8.88581 15.3887 9.00572 15.4589 9.06568 15.4684C9.13346 15.4838 9.26901 15.4669 9.26901 15.2758C9.26901 15.037 8.94837 14.9137 8.77632 14.9137C8.60427 14.9137 8.33838 15.0447 8.33838 15.376Z" fill="#00ABC2"/>
        <path d="M8.20543 28.7662C8.20543 28.3964 8.58081 27.4102 8.15851 26.9634C8.34881 27.0122 8.71063 27.2299 8.63556 27.7107C8.67987 27.7184 8.77476 27.7215 8.79978 27.6722C8.83107 27.6105 8.82325 27.8109 8.7294 27.9264C8.77372 27.9521 8.83782 27.9795 8.87017 27.9264C8.91709 27.8494 8.84671 28.119 8.77632 28.1345C8.95619 28.1216 9.31593 28.1899 9.31593 28.5659C9.31593 28.9419 9.01876 28.9845 8.87017 28.9588V29.0667C8.83889 29.0205 8.77632 28.9203 8.77632 28.8895C8.77632 28.8587 8.69812 28.8253 8.65902 28.8124L8.63556 28.7662C8.68248 28.7457 8.77632 28.7 8.77632 28.6815C8.77632 28.6584 8.79196 28.5274 8.83107 28.5197C8.86235 28.5135 8.8806 28.5582 8.88581 28.5813C8.87799 28.607 8.86704 28.663 8.88581 28.6815C8.90927 28.7046 8.94837 28.7046 8.98747 28.7123C9.02658 28.72 9.13606 28.6969 9.13606 28.5813C9.13606 28.4657 9.1126 28.3502 8.88581 28.3502C8.65902 28.3502 8.54171 28.4966 8.54171 28.7277C8.54171 28.9588 8.68248 29.2131 8.98747 29.2131C9.29247 29.2131 9.48016 29.0513 9.48016 28.7277C9.48016 28.2346 8.0021 26.0003 8.0021 25.2992C7.98125 25.0372 8.10689 24.5133 8.77632 24.5133C9.44575 24.5133 9.65482 24.878 9.67567 25.0604C9.69653 24.878 9.91341 24.5133 10.5828 24.5133C11.2523 24.5133 11.3779 25.0372 11.3571 25.2992C11.3571 26.0003 9.879 28.2346 9.879 28.7277C9.879 29.0513 10.0667 29.2131 10.3717 29.2131C10.6767 29.2131 10.8175 28.9588 10.8175 28.7277C10.8175 28.4966 10.7001 28.3502 10.4734 28.3502C10.2466 28.3502 10.2231 28.4657 10.2231 28.5813C10.2231 28.6969 10.3326 28.72 10.3717 28.7123C10.4108 28.7046 10.4499 28.7046 10.4734 28.6815C10.4921 28.663 10.4812 28.607 10.4734 28.5813C10.4786 28.5582 10.4968 28.5135 10.5281 28.5197C10.5672 28.5274 10.5828 28.6584 10.5828 28.6815C10.5828 28.7 10.6767 28.7457 10.7236 28.7662L10.7001 28.8124C10.661 28.8253 10.5828 28.8587 10.5828 28.8895C10.5828 28.9203 10.5203 29.0205 10.489 29.0667V28.9588C10.3404 28.9845 10.0432 28.9419 10.0432 28.5659C10.0432 28.1899 10.403 28.1216 10.5828 28.1345C10.5125 28.119 10.4421 27.8494 10.489 27.9264C10.5213 27.9795 10.5854 27.9521 10.6298 27.9264C10.5359 27.8109 10.5281 27.6105 10.5594 27.6722C10.5844 27.7215 10.6793 27.7184 10.7236 27.7107C10.6485 27.2299 11.0104 27.0122 11.2007 26.9634C10.7784 27.4102 11.1537 28.3964 11.1537 28.7662C11.1537 28.9588 10.9864 29.2593 10.8175 29.3209C10.9295 29.3364 11.1537 29.3887 11.1537 29.475H10.2231C10.0902 29.4545 9.78829 29.3641 9.67567 29.1669C9.56306 29.3641 9.26901 29.4545 9.13606 29.475H8.20543C8.20543 29.3887 8.42962 29.3364 8.54171 29.3209C8.37279 29.2593 8.20543 28.9588 8.20543 28.7662Z" fill="#FFEC2D"/>
        <path d="M8.33838 25.2994C8.33838 25.5644 9.22991 27.4438 9.67567 28.3503C10.1214 27.4438 11.0208 25.5644 11.0208 25.2994C11.0208 24.9681 10.7549 24.8371 10.5828 24.8371C10.4108 24.8371 10.0902 24.9604 10.0902 25.1992C10.0902 25.3903 10.2257 25.4072 10.2935 25.3918C10.3534 25.3823 10.4734 25.3121 10.4734 25.1067C10.6063 25.1992 10.6767 25.2994 10.7001 25.3918C10.7523 25.4072 10.8581 25.4519 10.8644 25.5074C10.8706 25.5629 10.7419 25.6178 10.6767 25.6384C10.661 25.7385 10.5985 25.9388 10.4734 25.9388C10.4812 25.8721 10.4749 25.7447 10.4499 25.7077C10.3717 25.5921 10.0198 25.7462 9.879 25.5305V26.3318C9.879 26.4319 10.037 26.5429 10.2935 26.4319C10.2961 26.5526 10.1965 26.794 9.77734 26.794C9.99631 26.9635 9.9009 27.3503 9.67567 27.5722C9.45044 27.3503 9.36285 26.9635 9.58183 26.794C9.16265 26.794 9.06307 26.5526 9.06568 26.4319C9.32219 26.5429 9.48016 26.4319 9.48016 26.3318V25.5305C9.33939 25.7462 8.98747 25.5921 8.90927 25.7077C8.88424 25.7447 8.87799 25.8721 8.88581 25.9388C8.76068 25.9388 8.69812 25.7385 8.68248 25.6384C8.61731 25.6178 8.48853 25.5629 8.49479 25.5074C8.50104 25.4519 8.60688 25.4072 8.65902 25.3918C8.68248 25.2994 8.75286 25.1992 8.88581 25.1067C8.88581 25.3121 9.00572 25.3823 9.06568 25.3918C9.13346 25.4072 9.26901 25.3903 9.26901 25.1992C9.26901 24.9604 8.94837 24.8371 8.77632 24.8371C8.60427 24.8371 8.33838 24.9681 8.33838 25.2994Z" fill="#00ABC2"/>
        <path d="M8.20543 20.2606C8.20543 20.6304 8.58081 21.6166 8.15851 22.0634C8.34881 22.0146 8.71063 21.7969 8.63556 21.3161C8.67987 21.3084 8.77476 21.3053 8.79978 21.3546C8.83107 21.4162 8.82325 21.2159 8.7294 21.1004C8.77372 21.0747 8.83782 21.0472 8.87017 21.1004C8.91709 21.1774 8.84671 20.9078 8.77632 20.8923C8.95619 20.9052 9.31593 20.8369 9.31593 20.4609C9.31593 20.0849 9.01876 20.0423 8.87017 20.068V19.9601C8.83889 20.0063 8.77632 20.1065 8.77632 20.1373C8.77632 20.1681 8.69812 20.2015 8.65902 20.2143L8.63556 20.2606C8.68248 20.2811 8.77632 20.3268 8.77632 20.3453C8.77632 20.3684 8.79196 20.4994 8.83107 20.5071C8.86235 20.5133 8.8806 20.4686 8.88581 20.4455C8.87799 20.4198 8.86704 20.3638 8.88581 20.3453C8.90927 20.3222 8.94837 20.3222 8.98747 20.3145C9.02658 20.3068 9.13606 20.3299 9.13606 20.4455C9.13606 20.561 9.1126 20.6766 8.88581 20.6766C8.65902 20.6766 8.54171 20.5302 8.54171 20.2991C8.54171 20.068 8.68248 19.8137 8.98747 19.8137C9.29247 19.8137 9.48016 19.9755 9.48016 20.2991C9.48016 20.7922 8.0021 23.0265 8.0021 23.7276C7.98125 23.9896 8.10689 24.5135 8.77632 24.5135C9.44575 24.5135 9.65482 24.1488 9.67567 23.9664C9.69653 24.1488 9.91341 24.5135 10.5828 24.5135C11.2523 24.5135 11.3779 23.9896 11.3571 23.7276C11.3571 23.0265 9.879 20.7922 9.879 20.2991C9.879 19.9755 10.0667 19.8137 10.3717 19.8137C10.6767 19.8137 10.8175 20.068 10.8175 20.2991C10.8175 20.5302 10.7001 20.6766 10.4734 20.6766C10.2466 20.6766 10.2231 20.561 10.2231 20.4455C10.2231 20.3299 10.3326 20.3068 10.3717 20.3145C10.4108 20.3222 10.4499 20.3222 10.4734 20.3453C10.4921 20.3638 10.4812 20.4198 10.4734 20.4455C10.4786 20.4686 10.4968 20.5133 10.5281 20.5071C10.5672 20.4994 10.5828 20.3684 10.5828 20.3453C10.5828 20.3268 10.6767 20.2811 10.7236 20.2606L10.7001 20.2143C10.661 20.2015 10.5828 20.1681 10.5828 20.1373C10.5828 20.1065 10.5203 20.0063 10.489 19.9601V20.068C10.3404 20.0423 10.0432 20.0849 10.0432 20.4609C10.0432 20.8369 10.403 20.9052 10.5828 20.8923C10.5125 20.9078 10.4421 21.1774 10.489 21.1004C10.5213 21.0472 10.5854 21.0747 10.6298 21.1004C10.5359 21.2159 10.5281 21.4162 10.5594 21.3546C10.5844 21.3053 10.6793 21.3084 10.7236 21.3161C10.6485 21.7969 11.0104 22.0146 11.2007 22.0634C10.7784 21.6166 11.1537 20.6304 11.1537 20.2606C11.1537 20.068 10.9864 19.7675 10.8175 19.7058C10.9295 19.6904 11.1537 19.638 11.1537 19.5518H10.2231C10.0902 19.5723 9.78829 19.6627 9.67567 19.8599C9.56306 19.6627 9.26901 19.5723 9.13606 19.5518H8.20543C8.20543 19.638 8.42962 19.6904 8.54171 19.7058C8.37279 19.7675 8.20543 20.068 8.20543 20.2606Z" fill="#FFEC2D"/>
        <path d="M8.33838 23.7276C8.33838 23.4625 9.22991 21.5831 9.67567 20.6766C10.1214 21.5831 11.0208 23.4625 11.0208 23.7276C11.0208 24.0589 10.7549 24.1898 10.5828 24.1898C10.4108 24.1898 10.0902 24.0666 10.0902 23.8277C10.0902 23.6366 10.2257 23.6197 10.2935 23.6351C10.3534 23.6446 10.4734 23.7148 10.4734 23.9202C10.6063 23.8277 10.6767 23.7276 10.7001 23.6351C10.7523 23.6197 10.8581 23.575 10.8644 23.5195C10.8706 23.4641 10.7419 23.4091 10.6767 23.3886C10.661 23.2884 10.5985 23.0881 10.4734 23.0881C10.4812 23.1549 10.4749 23.2822 10.4499 23.3192C10.3717 23.4348 10.0198 23.2807 9.879 23.4964V22.6952C9.879 22.595 10.037 22.4841 10.2935 22.595C10.2961 22.4743 10.1965 22.2329 9.77734 22.2329C9.99631 22.0634 9.9009 21.6766 9.67567 21.4547C9.45044 21.6766 9.36285 22.0634 9.58183 22.2329C9.16265 22.2329 9.06307 22.4743 9.06568 22.595C9.32219 22.4841 9.48016 22.595 9.48016 22.6952V23.4964C9.33939 23.2807 8.98747 23.4348 8.90927 23.3192C8.88424 23.2822 8.87799 23.1549 8.88581 23.0881C8.76068 23.0881 8.69812 23.2884 8.68248 23.3886C8.61731 23.4091 8.48853 23.4641 8.49479 23.5195C8.50104 23.575 8.60688 23.6197 8.65902 23.6351C8.68248 23.7276 8.75286 23.8277 8.88581 23.9202C8.88581 23.7148 9.00572 23.6446 9.06568 23.6351C9.13346 23.6197 9.26901 23.6366 9.26901 23.8277C9.26901 24.0666 8.94837 24.1898 8.77632 24.1898C8.60427 24.1898 8.33838 24.0589 8.33838 23.7276Z" fill="#00ABC2"/>
        <path d="M8.20543 30.1839C8.20543 30.5537 8.58081 31.5398 8.15851 31.9867C8.34881 31.9379 8.71063 31.7201 8.63556 31.2394C8.67987 31.2317 8.77476 31.2286 8.79978 31.2779C8.83107 31.3395 8.82325 31.1392 8.7294 31.0236C8.77372 30.998 8.83782 30.9705 8.87017 31.0236C8.91709 31.1007 8.84671 30.831 8.77632 30.8156C8.95619 30.8285 9.31593 30.7601 9.31593 30.3842C9.31593 30.0082 9.01876 29.9656 8.87017 29.9912V29.8834C8.83889 29.9296 8.77632 30.0298 8.77632 30.0606C8.77632 30.0914 8.69812 30.1248 8.65902 30.1376L8.63556 30.1839C8.68248 30.2044 8.77632 30.2501 8.77632 30.2686C8.77632 30.2917 8.79196 30.4227 8.83107 30.4304C8.86235 30.4366 8.8806 30.3919 8.88581 30.3688C8.87799 30.3431 8.86704 30.2871 8.88581 30.2686C8.90927 30.2455 8.94837 30.2455 8.98747 30.2378C9.02658 30.2301 9.13606 30.2532 9.13606 30.3688C9.13606 30.4843 9.1126 30.5999 8.88581 30.5999C8.65902 30.5999 8.54171 30.4535 8.54171 30.2224C8.54171 29.9912 8.68248 29.737 8.98747 29.737C9.29247 29.737 9.48016 29.8988 9.48016 30.2224C9.48016 30.7155 8.0021 32.9498 8.0021 33.6509C7.98125 33.9128 8.10689 34.4367 8.77632 34.4367C9.44575 34.4367 9.65482 34.0721 9.67567 33.8897C9.69653 34.0721 9.91341 34.4367 10.5828 34.4367C11.2523 34.4367 11.3779 33.9128 11.3571 33.6509C11.3571 32.9498 9.879 30.7155 9.879 30.2224C9.879 29.8988 10.0667 29.737 10.3717 29.737C10.6767 29.737 10.8175 29.9912 10.8175 30.2224C10.8175 30.4535 10.7001 30.5999 10.4734 30.5999C10.2466 30.5999 10.2231 30.4843 10.2231 30.3688C10.2231 30.2532 10.3326 30.2301 10.3717 30.2378C10.4108 30.2455 10.4499 30.2455 10.4734 30.2686C10.4921 30.2871 10.4812 30.3431 10.4734 30.3688C10.4786 30.3919 10.4968 30.4366 10.5281 30.4304C10.5672 30.4227 10.5828 30.2917 10.5828 30.2686C10.5828 30.2501 10.6767 30.2044 10.7236 30.1839L10.7001 30.1376C10.661 30.1248 10.5828 30.0914 10.5828 30.0606C10.5828 30.0298 10.5203 29.9296 10.489 29.8834V29.9912C10.3404 29.9656 10.0432 30.0082 10.0432 30.3842C10.0432 30.7601 10.403 30.8285 10.5828 30.8156C10.5125 30.831 10.4421 31.1007 10.489 31.0236C10.5213 30.9705 10.5854 30.998 10.6298 31.0236C10.5359 31.1392 10.5281 31.3395 10.5594 31.2779C10.5844 31.2286 10.6793 31.2317 10.7236 31.2394C10.6485 31.7201 11.0104 31.9379 11.2007 31.9867C10.7784 31.5398 11.1537 30.5537 11.1537 30.1839C11.1537 29.9912 10.9864 29.6908 10.8175 29.6291C10.9295 29.6137 11.1537 29.5613 11.1537 29.475H10.2231C10.0902 29.4956 9.78829 29.586 9.67567 29.7832C9.56306 29.586 9.26901 29.4956 9.13606 29.475H8.20543C8.20543 29.5613 8.42962 29.6137 8.54171 29.6291C8.37279 29.6908 8.20543 29.9912 8.20543 30.1839Z" fill="#FFEC2D"/>
    </g>
    <defs>
        <clipPath id="clip0_533_3625">
            <rect x="6.66663" y="10" width="28" height="20" rx="6.66667" fill="white"/>
        </clipPath>
    </defs>
</svg>
