<svg width="40" height="40" viewBox="0 0 40 40" fill="none" xmlns="http://www.w3.org/2000/svg">
    <g clip-path="url(#clip0_533_3683)">
        <rect x="6.66663" y="28.4616" width="38.0392" height="1.53846" fill="#BB133E"/>
        <rect x="21.9004" y="19.2308" width="22.8054" height="1.53846" fill="#BB133E"/>
        <rect x="6.66663" y="25.3848" width="38.0392" height="1.53846" fill="#BB133E"/>
        <rect x="21.9004" y="16.154" width="22.8054" height="1.53846" fill="#BB133E"/>
        <rect x="6.66663" y="22.3076" width="38.0392" height="1.53846" fill="#BB133E"/>
        <rect x="21.9004" y="13.0768" width="22.8054" height="1.53846" fill="#BB133E"/>
        <rect x="21.9004" y="10" width="22.8054" height="1.53846" fill="#BB133E"/>
        <rect x="6.66663" y="26.9232" width="38.0392" height="1.53846" fill="white"/>
        <rect x="21.9004" y="17.6924" width="22.8054" height="1.53846" fill="white"/>
        <rect x="6.66663" y="23.846" width="38.0392" height="1.53846" fill="white"/>
        <rect x="21.9004" y="14.6152" width="22.8054" height="1.53846" fill="white"/>
        <rect x="6.66663" y="20.7692" width="38.0392" height="1.53846" fill="white"/>
        <rect x="21.9004" y="11.5384" width="22.8054" height="1.53846" fill="white"/>
        <rect x="6.66663" y="10" width="15.2338" height="10.7692" fill="#002664"/>
        <path d="M7.5262 10.196L7.6752 10.6546L8.15737 10.6546L7.76728 10.938L7.91628 11.3965L7.5262 11.1131L7.13612 11.3965L7.28511 10.938L6.89503 10.6546L7.3772 10.6546L7.5262 10.196Z" fill="white"/>
        <path d="M9.21553 10.196L9.36453 10.6546L9.8467 10.6546L9.45661 10.938L9.60561 11.3966L9.21553 11.1132L8.82545 11.3966L8.97444 10.938L8.58436 10.6546L9.06653 10.6546L9.21553 10.196Z" fill="white"/>
        <path d="M10.9047 10.196L11.0537 10.6546L11.5359 10.6546L11.1458 10.938L11.2948 11.3966L10.9047 11.1132L10.5147 11.3966L10.6637 10.938L10.2736 10.6546L10.7557 10.6546L10.9047 10.196Z" fill="white"/>
        <path d="M12.5941 10.196L12.7431 10.6546L13.2252 10.6546L12.8352 10.938L12.9842 11.3966L12.5941 11.1132L12.204 11.3966L12.353 10.938L11.9629 10.6546L12.4451 10.6546L12.5941 10.196Z" fill="white"/>
        <path d="M14.2835 10.1959L14.4325 10.6545L14.9147 10.6545L14.5246 10.9379L14.6736 11.3965L14.2835 11.1131L13.8934 11.3965L14.0424 10.9379L13.6524 10.6545L14.1345 10.6545L14.2835 10.1959Z" fill="white"/>
        <path d="M15.9726 10.196L16.1216 10.6546L16.6038 10.6546L16.2137 10.938L16.3627 11.3966L15.9726 11.1132L15.5825 11.3966L15.7315 10.938L15.3414 10.6546L15.8236 10.6546L15.9726 10.196Z" fill="white"/>
        <path d="M17.6619 10.196L17.8109 10.6546L18.2931 10.6546L17.903 10.938L18.052 11.3966L17.6619 11.1132L17.2719 11.3966L17.4209 10.938L17.0308 10.6546L17.5129 10.6546L17.6619 10.196Z" fill="white"/>
        <path d="M19.3513 10.196L19.5003 10.6546L19.9824 10.6546L19.5924 10.938L19.7414 11.3966L19.3513 11.1132L18.9612 11.3966L19.1102 10.938L18.7201 10.6546L19.2023 10.6546L19.3513 10.196Z" fill="white"/>
        <path d="M21.0405 10.196L21.1895 10.6546L21.6716 10.6546L21.2816 10.938L21.4306 11.3966L21.0405 11.1132L20.6504 11.3966L20.7994 10.938L20.4093 10.6546L20.8915 10.6546L21.0405 10.196Z" fill="white"/>
        <path d="M7.5262 13.8461L7.6752 14.3047L8.15737 14.3047L7.76728 14.5881L7.91628 15.0467L7.5262 14.7633L7.13612 15.0467L7.28511 14.5881L6.89503 14.3047L7.3772 14.3047L7.5262 13.8461Z" fill="white"/>
        <path d="M9.21541 13.8461L9.36441 14.3046L9.84658 14.3046L9.45649 14.5881L9.60549 15.0466L9.21541 14.7632L8.82532 15.0466L8.97432 14.5881L8.58424 14.3046L9.06641 14.3046L9.21541 13.8461Z" fill="white"/>
        <path d="M10.9047 13.8461L11.0537 14.3046L11.5359 14.3046L11.1458 14.5881L11.2948 15.0466L10.9047 14.7632L10.5147 15.0466L10.6637 14.5881L10.2736 14.3046L10.7557 14.3046L10.9047 13.8461Z" fill="white"/>
        <path d="M12.5941 13.8461L12.7431 14.3046L13.2252 14.3046L12.8352 14.5881L12.9842 15.0466L12.5941 14.7632L12.204 15.0466L12.353 14.5881L11.9629 14.3046L12.4451 14.3046L12.5941 13.8461Z" fill="white"/>
        <path d="M14.2834 13.8461L14.4324 14.3047L14.9146 14.3047L14.5245 14.5881L14.6735 15.0467L14.2834 14.7633L13.8933 15.0467L14.0423 14.5881L13.6522 14.3047L14.1344 14.3047L14.2834 13.8461Z" fill="white"/>
        <path d="M15.9726 13.8461L16.1216 14.3046L16.6038 14.3046L16.2137 14.5881L16.3627 15.0466L15.9726 14.7632L15.5825 15.0466L15.7315 14.5881L15.3414 14.3046L15.8236 14.3046L15.9726 13.8461Z" fill="white"/>
        <path d="M17.6619 13.8461L17.8109 14.3047L18.2931 14.3047L17.903 14.5881L18.052 15.0467L17.6619 14.7633L17.2719 15.0467L17.4209 14.5881L17.0308 14.3047L17.5129 14.3047L17.6619 13.8461Z" fill="white"/>
        <path d="M19.3513 13.8461L19.5003 14.3046L19.9824 14.3046L19.5924 14.5881L19.7414 15.0466L19.3513 14.7632L18.9612 15.0466L19.1102 14.5881L18.7201 14.3046L19.2023 14.3046L19.3513 13.8461Z" fill="white"/>
        <path d="M21.0405 13.8461L21.1895 14.3046L21.6716 14.3046L21.2816 14.5881L21.4306 15.0466L21.0405 14.7632L20.6504 15.0466L20.7994 14.5881L20.4093 14.3046L20.8915 14.3046L21.0405 13.8461Z" fill="white"/>
        <path d="M7.5262 17.4359L7.6752 17.8944L8.15737 17.8944L7.76728 18.1778L7.91628 18.6364L7.5262 18.353L7.13612 18.6364L7.28511 18.1778L6.89503 17.8944L7.3772 17.8944L7.5262 17.4359Z" fill="white"/>
        <path d="M9.21541 17.4358L9.36441 17.8944L9.84658 17.8944L9.45649 18.1778L9.60549 18.6363L9.21541 18.3529L8.82532 18.6363L8.97432 18.1778L8.58424 17.8944L9.06641 17.8944L9.21541 17.4358Z" fill="white"/>
        <path d="M10.9049 17.4358L11.0539 17.8944L11.536 17.8944L11.1459 18.1778L11.2949 18.6363L10.9049 18.3529L10.5148 18.6363L10.6638 18.1778L10.2737 17.8944L10.7559 17.8944L10.9049 17.4358Z" fill="white"/>
        <path d="M12.5941 17.4358L12.7431 17.8944L13.2252 17.8944L12.8352 18.1778L12.9842 18.6363L12.5941 18.3529L12.204 18.6363L12.353 18.1778L11.9629 17.8944L12.4451 17.8944L12.5941 17.4358Z" fill="white"/>
        <path d="M14.2834 17.4359L14.4324 17.8944L14.9146 17.8944L14.5245 18.1778L14.6735 18.6364L14.2834 18.353L13.8933 18.6364L14.0423 18.1778L13.6522 17.8944L14.1344 17.8944L14.2834 17.4359Z" fill="white"/>
        <path d="M15.9726 17.4358L16.1216 17.8944L16.6038 17.8944L16.2137 18.1778L16.3627 18.6363L15.9726 18.3529L15.5825 18.6363L15.7315 18.1778L15.3414 17.8944L15.8236 17.8944L15.9726 17.4358Z" fill="white"/>
        <path d="M17.6619 17.4359L17.8109 17.8944L18.2931 17.8944L17.903 18.1778L18.052 18.6364L17.6619 18.353L17.2719 18.6364L17.4209 18.1778L17.0308 17.8944L17.5129 17.8944L17.6619 17.4359Z" fill="white"/>
        <path d="M19.3513 17.4358L19.5003 17.8944L19.9824 17.8944L19.5924 18.1778L19.7414 18.6363L19.3513 18.3529L18.9612 18.6363L19.1102 18.1778L18.7201 17.8944L19.2023 17.8944L19.3513 17.4358Z" fill="white"/>
        <path d="M21.0405 17.4358L21.1895 17.8944L21.6716 17.8944L21.2816 18.1778L21.4306 18.6363L21.0405 18.3529L20.6504 18.6363L20.7994 18.1778L20.4093 17.8944L20.8915 17.8944L21.0405 17.4358Z" fill="white"/>
        <path d="M8.3708 11.9758L8.5198 12.4344L9.00197 12.4344L8.61189 12.7178L8.76089 13.1764L8.3708 12.893L7.98072 13.1764L8.12972 12.7178L7.73963 12.4344L8.2218 12.4344L8.3708 11.9758Z" fill="white"/>
        <path d="M10.0601 11.9757L10.2091 12.4343L10.6913 12.4343L10.3012 12.7177L10.4502 13.1763L10.0601 12.8928L9.67005 13.1763L9.81905 12.7177L9.42897 12.4343L9.91114 12.4343L10.0601 11.9757Z" fill="white"/>
        <path d="M11.7493 11.9757L11.8983 12.4343L12.3805 12.4343L11.9904 12.7177L12.1394 13.1763L11.7493 12.8928L11.3593 13.1763L11.5083 12.7177L11.1182 12.4343L11.6003 12.4343L11.7493 11.9757Z" fill="white"/>
        <path d="M13.4388 11.9757L13.5878 12.4343L14.07 12.4343L13.6799 12.7177L13.8289 13.1763L13.4388 12.8928L13.0487 13.1763L13.1977 12.7177L12.8076 12.4343L13.2898 12.4343L13.4388 11.9757Z" fill="white"/>
        <path d="M15.1279 11.9757L15.2769 12.4343L15.7591 12.4343L15.369 12.7177L15.518 13.1763L15.1279 12.8928L14.7378 13.1763L14.8868 12.7177L14.4967 12.4343L14.9789 12.4343L15.1279 11.9757Z" fill="white"/>
        <path d="M16.8173 11.9757L16.9663 12.4343L17.4485 12.4343L17.0584 12.7177L17.2074 13.1763L16.8173 12.8928L16.4273 13.1763L16.5763 12.7177L16.1862 12.4343L16.6683 12.4343L16.8173 11.9757Z" fill="white"/>
        <path d="M18.5065 11.9757L18.6555 12.4343L19.1377 12.4343L18.7476 12.7177L18.8966 13.1763L18.5065 12.8928L18.1165 13.1763L18.2655 12.7177L17.8754 12.4343L18.3575 12.4343L18.5065 11.9757Z" fill="white"/>
        <path d="M20.1958 11.9757L20.3448 12.4343L20.8269 12.4343L20.4368 12.7177L20.5858 13.1763L20.1958 12.8928L19.8057 13.1763L19.9547 12.7177L19.5646 12.4343L20.0468 12.4343L20.1958 11.9757Z" fill="white"/>
        <path d="M8.3708 15.6259L8.5198 16.0845L9.00197 16.0845L8.61189 16.3679L8.76089 16.8265L8.3708 16.5431L7.98072 16.8265L8.12972 16.3679L7.73963 16.0845L8.2218 16.0845L8.3708 15.6259Z" fill="white"/>
        <path d="M10.06 15.6259L10.209 16.0844L10.6912 16.0844L10.3011 16.3678L10.4501 16.8264L10.06 16.543L9.66993 16.8264L9.81893 16.3678L9.42884 16.0844L9.91101 16.0844L10.06 15.6259Z" fill="white"/>
        <path d="M11.7493 15.6259L11.8983 16.0844L12.3805 16.0844L11.9904 16.3678L12.1394 16.8264L11.7493 16.543L11.3593 16.8264L11.5083 16.3678L11.1182 16.0844L11.6003 16.0844L11.7493 15.6259Z" fill="white"/>
        <path d="M13.4388 15.6259L13.5878 16.0844L14.07 16.0844L13.6799 16.3678L13.8289 16.8264L13.4388 16.543L13.0487 16.8264L13.1977 16.3678L12.8076 16.0844L13.2898 16.0844L13.4388 15.6259Z" fill="white"/>
        <path d="M15.1279 15.6259L15.2769 16.0844L15.7591 16.0844L15.369 16.3678L15.518 16.8264L15.1279 16.543L14.7378 16.8264L14.8868 16.3678L14.4967 16.0844L14.9789 16.0844L15.1279 15.6259Z" fill="white"/>
        <path d="M16.8173 15.6259L16.9663 16.0844L17.4485 16.0844L17.0584 16.3678L17.2074 16.8264L16.8173 16.543L16.4273 16.8264L16.5763 16.3678L16.1862 16.0844L16.6683 16.0844L16.8173 15.6259Z" fill="white"/>
        <path d="M18.5064 15.6259L18.6554 16.0844L19.1376 16.0844L18.7475 16.3678L18.8965 16.8264L18.5064 16.543L18.1163 16.8264L18.2653 16.3678L17.8753 16.0844L18.3574 16.0844L18.5064 15.6259Z" fill="white"/>
        <path d="M20.1959 15.6259L20.3449 16.0845L20.827 16.0845L20.437 16.3679L20.586 16.8265L20.1959 16.5431L19.8058 16.8265L19.9548 16.3679L19.5647 16.0845L20.0469 16.0845L20.1959 15.6259Z" fill="white"/>
        <path d="M8.3708 19.2156L8.5198 19.6742L9.00197 19.6742L8.61189 19.9576L8.76089 20.4162L8.3708 20.1328L7.98072 20.4162L8.12972 19.9576L7.73963 19.6742L8.2218 19.6742L8.3708 19.2156Z" fill="white"/>
        <path d="M10.0601 19.2156L10.2091 19.6741L10.6913 19.6741L10.3012 19.9576L10.4502 20.4161L10.0601 20.1327L9.67005 20.4161L9.81905 19.9576L9.42897 19.6741L9.91114 19.6741L10.0601 19.2156Z" fill="white"/>
        <path d="M11.7493 19.2156L11.8983 19.6741L12.3805 19.6741L11.9904 19.9576L12.1394 20.4161L11.7493 20.1327L11.3593 20.4161L11.5083 19.9576L11.1182 19.6741L11.6003 19.6741L11.7493 19.2156Z" fill="white"/>
        <path d="M13.4388 19.2156L13.5878 19.6741L14.07 19.6741L13.6799 19.9576L13.8289 20.4161L13.4388 20.1327L13.0487 20.4161L13.1977 19.9576L12.8076 19.6741L13.2898 19.6741L13.4388 19.2156Z" fill="white"/>
        <path d="M15.1279 19.2156L15.2769 19.6741L15.7591 19.6741L15.369 19.9576L15.518 20.4161L15.1279 20.1327L14.7378 20.4161L14.8868 19.9576L14.4967 19.6741L14.9789 19.6741L15.1279 19.2156Z" fill="white"/>
        <path d="M16.8173 19.2156L16.9663 19.6741L17.4485 19.6741L17.0584 19.9576L17.2074 20.4161L16.8173 20.1327L16.4273 20.4161L16.5763 19.9576L16.1862 19.6741L16.6683 19.6741L16.8173 19.2156Z" fill="white"/>
        <path d="M18.5065 19.2156L18.6555 19.6741L19.1377 19.6741L18.7476 19.9576L18.8966 20.4161L18.5065 20.1327L18.1165 20.4161L18.2655 19.9576L17.8754 19.6741L18.3575 19.6741L18.5065 19.2156Z" fill="white"/>
        <path d="M20.1959 19.2156L20.3449 19.6742L20.827 19.6742L20.437 19.9576L20.586 20.4162L20.1959 20.1328L19.8058 20.4162L19.9548 19.9576L19.5647 19.6742L20.0469 19.6742L20.1959 19.2156Z" fill="white"/>
    </g>
    <defs>
        <clipPath id="clip0_533_3683">
            <rect x="6.66663" y="10" width="28" height="20" rx="6.66667" fill="white"/>
        </clipPath>
    </defs>
</svg>
