<svg width="30" height="30" viewBox="0 0 30 30" fill="none" xmlns="http://www.w3.org/2000/svg">
    <path fill-rule="evenodd" clip-rule="evenodd" d="M14.6102 16.3018L18.1458 19.7234C18.2637 19.8336 18.4216 19.8946 18.5854 19.8932C18.7493 19.8918 18.9061 19.8282 19.0219 19.716C19.1378 19.6039 19.2036 19.4522 19.205 19.2936C19.2064 19.135 19.1434 18.9822 19.0296 18.8682L15.4939 15.4466L19.0296 12.025C19.1434 11.911 19.2064 11.7582 19.205 11.5996C19.2036 11.441 19.1378 11.2893 19.0219 11.1772C18.9061 11.065 18.7493 11.0014 18.5854 11C18.4216 10.9986 18.2637 11.0596 18.1458 11.1698L14.6102 14.5914L11.0746 11.1698C10.9561 11.0623 10.7992 11.0037 10.6369 11.0062C10.4746 11.0088 10.3197 11.0723 10.2049 11.1835C10.0902 11.2946 10.0246 11.4445 10.0221 11.6016C10.0196 11.7587 10.0803 11.9105 10.1914 12.025L13.7264 15.4466L10.1908 18.8682C10.1311 18.924 10.0835 18.9907 10.0507 19.0645C10.018 19.1383 10.0007 19.2177 10 19.298C9.9993 19.3783 10.0151 19.4579 10.0465 19.5323C10.078 19.6066 10.1244 19.6741 10.1831 19.7309C10.2417 19.7877 10.3115 19.8326 10.3883 19.863C10.4651 19.8934 10.5474 19.9087 10.6304 19.908C10.7134 19.9073 10.7954 19.8907 10.8717 19.859C10.9479 19.8273 11.0169 19.7812 11.0746 19.7234L14.6102 16.3018Z" fill="#141414" />
</svg>