<svg width="129" height="37" viewBox="0 0 129 37" fill="none" xmlns="http://www.w3.org/2000/svg">
    <path d="M113.27 22.7328C110.736 22.7328 108.514 24.0734 107.263 26.0896C107.118 26.6514 106.877 27.1873 106.533 27.6682C106.311 28.3601 106.19 29.0977 106.19 29.8641C106.19 33.8036 109.36 37 113.27 37C117.186 37 120.355 33.8036 120.355 29.8641C120.355 25.9247 117.186 22.7328 113.27 22.7328ZM113.27 33.365C111.356 33.365 109.799 31.7969 109.799 29.8641C109.799 27.9359 111.356 26.3677 113.27 26.3677C115.189 26.3677 116.747 27.9359 116.747 29.8641C116.747 31.7969 115.189 33.365 113.27 33.365Z" fill="#FFD829"/>
    <path d="M104.236 32.3005C104.375 31.9935 104.43 31.6424 104.374 31.2803C104.279 30.6857 104.242 30.0708 104.272 29.4449C104.253 29.4518 104.235 29.4593 104.216 29.4667C103.486 29.7474 102.739 29.8626 101.983 29.9039C102.068 30.3092 102.014 30.7324 102.008 31.1695L102.008 31.1988C102.545 31.1973 103.253 31.1909 103.66 31.4958C103.973 31.7313 104.122 31.9911 104.236 32.3005Z" fill="#FFD829"/>
    <path d="M128.03 16.2308C127.105 15.3009 123.278 13.9488 122.387 13.9488L121.742 12.9758L117.753 5.80266C117.263 4.92198 116.544 4.21118 115.697 3.73631L108.314 2.5879C106.533 0.927372 104.198 0 101.761 0H97.4062V3.04439V12.6355L99.3615 14.4004C100.441 15.3739 101.553 16.3078 102.625 17.2908C103.782 18.3508 105.21 19.6974 106.039 21.0325L106.084 21.1046L106.865 22.8888L106.883 22.9489C106.903 23.0095 106.921 23.0706 106.938 23.1322C108.452 21.7424 110.429 20.8607 112.578 20.7618C117.739 20.5219 122.012 24.669 122.012 29.826C122.012 30.3103 121.97 30.7856 121.898 31.2515C121.728 32.3398 121.221 33.3179 122.316 33.3179H125.557C127.237 33.3179 128.597 31.9479 128.597 30.2596V30.1672L120.995 29.8215L128.597 29.4753C128.597 28.6969 128.677 26.6425 128.712 24.3784C128.252 24.0446 127.796 23.7019 127.344 23.3567C126.893 23.0125 126.443 22.6648 125.999 22.3106C125.719 22.0866 125.381 21.8293 125.131 21.573C124.017 20.4305 123.86 18.31 124.968 17.1095C125.758 16.2541 126.593 16.2318 127.655 16.2313C127.78 16.2313 127.905 16.2313 128.03 16.2308ZM100.458 10.7112V6.84478C100.458 5.71624 101.375 4.79284 102.495 4.79284H103.066H112.615C113.627 4.79284 114.598 5.29999 115.097 6.1901C115.097 6.19954 115.102 6.20401 115.102 6.20848L117.982 11.3749C118.035 11.498 118.064 11.6346 118.064 11.7787C118.064 12.2878 117.594 12.7448 117.181 12.7637C116.955 12.7637 116.728 12.7637 116.502 12.7637H103.066H102.495C101.375 12.7637 100.458 11.8398 100.458 10.7112Z" fill="#FFD829"/>
    <path d="M95.9117 11.0847V3.91605H87.0283C88.6912 4.63281 90.3166 5.71864 92.0682 7.36278L92.0963 7.3891L93.6093 9.00642L95.9117 11.0847Z" fill="#FFD829"/>
    <path d="M127.927 17.4586C128.201 17.4586 128.475 17.4576 128.75 17.4561C128.959 18.7143 129.009 20.8318 128.999 22.9642C127.865 22.1163 126.486 21.0375 126.241 20.7856C125.572 20.0992 125.42 18.6964 126.1 17.9588C126.618 17.399 127.25 17.4591 127.927 17.4586Z" fill="#FFD829"/>
    <path d="M40.8096 14.0968H55.1846V12.8386C50.014 12.8207 41.5296 12.7964 40.8096 12.8396V14.0968Z" fill="#FFD829"/>
    <path d="M40.2959 27.3274H55.1843V26.0806H40.2959V27.3274Z" fill="#FFD829"/>
    <path d="M6.51318 21.3618L51.4194 21.3623C52.314 21.3633 53.5547 21.2734 54.3965 21.3618C54.3768 20.9401 54.2895 20.5283 54.2101 20.1151H6.51318V21.3618Z" fill="#FFD829"/>
    <path d="M11.9561 7.49988L48.8695 7.50038C49.6048 7.50137 50.6246 7.41097 51.3165 7.49988C51.3007 7.07767 51.2287 6.66639 51.1631 6.25262H11.9561V7.49988Z" fill="#FFD829"/>
    <path d="M34.2959 20.1036H67.9359C69.1061 20.0256 70.3187 20.1036 71.4939 20.1036L74.2007 20.1031C75.0036 20.1021 77.3849 19.747 76.0372 21.2828C73.8876 21.3812 71.5343 21.3504 69.3803 21.3504L52.58 21.3484C51.5666 21.3489 35.3049 21.4214 34.2959 21.3608V20.1036Z" fill="#00AEC7"/>
    <path d="M33.7832 9.56225L78.6894 9.56126C79.584 9.56026 80.8242 9.65067 81.666 9.56225C81.6468 9.98397 81.559 10.3952 81.4796 10.809H33.7832V9.56225Z" fill="#00AEC7"/>
    <path d="M0 14.7028L44.9062 14.7023C45.8008 14.7013 47.041 14.7917 47.8833 14.7028C47.8636 15.125 47.7763 15.5363 47.6969 15.95H0V14.7028Z" fill="#00AEC7"/>
    <path d="M5.44238 23.3914L42.3563 23.3909C43.0916 23.3899 44.1109 23.4798 44.8033 23.3914C44.787 23.8131 44.7155 24.2249 44.6499 24.6381H5.44238V23.3914Z" fill="#00AEC7"/>
    <path d="M62.962 12.1268L65.9401 12.1253C69.7225 12.1248 69.4108 12.0354 69.4207 15.9699C69.4251 17.8599 69.972 18.8261 67.7341 18.8936L64.3187 18.8961C63.5676 18.8966 61.2765 19.1827 61.1818 18.0467C61.1108 17.1914 61.1453 13.843 61.2622 13.2146C61.42 12.3667 62.211 12.1641 62.962 12.1268Z" fill="#00AEC7"/>
    <path d="M52.3307 12.1268C53.6133 12.0091 57.2863 12.0359 58.4293 12.2048C59.098 12.3037 59.4048 12.8948 59.4566 13.534C59.5335 14.4887 59.5759 17.0821 59.4472 18.0169C59.3619 18.6358 58.9521 18.8554 58.3554 18.8936L54.1099 18.8901C53.2538 18.8896 51.3316 19.2875 51.2384 17.9797C51.1886 17.2808 51.3148 13.0612 51.3853 12.8833C51.5323 12.5128 51.9845 12.2758 52.3307 12.1268Z" fill="#00AEC7"/>
    <path d="M74.8257 12.1268C76.0477 12.1338 77.6977 11.8367 78.6426 12.7502C80.0934 14.1519 79.9962 17.0667 78.6036 18.4699C77.9152 19.1638 76.919 18.8981 76.0378 18.8936L73.5519 18.8976C72.7885 18.8981 71.533 19.0977 71.0546 18.3273C70.9417 16.9246 71.0645 15.117 71.0482 13.6681C71.0241 11.5188 73.2802 12.1218 74.8257 12.1268Z" fill="#00AEC7"/>
    <path d="M87.2133 9.8553C89.0704 9.85579 90.9305 9.82996 92.7872 9.8553L98.8479 15.3252C100.67 16.9464 104.096 19.7445 105.313 21.703H100.831L94.4994 21.7035C93.9905 21.704 92.6112 21.781 92.1969 21.6976C91.7289 21.6042 84.7865 16.6052 83.998 15.8422C82.7213 14.6069 82.4308 12.0821 83.7297 10.7553C84.716 9.748 85.9232 9.85629 87.2133 9.8553Z" fill="#00AEC7"/>
    <path d="M49.3906 29.7404C49.7689 29.7424 50.1491 29.7613 50.5253 29.7623L99.8294 29.7648C101.058 29.7747 100.847 30.0504 100.831 31.1531C100.351 31.2157 99.7954 31.1561 99.3062 31.1556L95.8039 31.1531C95.9223 31.5604 96.011 31.9811 96.0717 32.4009C96.8932 32.4525 102.761 32.2985 102.957 32.4456C103.129 32.5752 103.172 32.8251 103.231 33.0223C102.983 33.9427 102.28 33.6576 101.408 33.6546C100.545 33.6511 99.6814 33.6422 98.818 33.6526C97.663 37.8956 91.3084 37.5662 90.4297 32.4009C91.1526 32.4679 91.9244 32.5246 92.6419 32.4009C92.9151 32.01 93.0423 31.6121 93.1602 31.1531C90.982 31.2271 88.4887 31.2048 86.3065 31.1531L86.9003 32.534C87.6745 32.6244 88.7762 32.536 89.546 32.4009C89.0666 34.2208 88.0878 36.0835 86.0639 36.4402C84.7571 36.6707 83.4473 36.4874 82.353 35.717C81.3096 34.9565 80.7074 33.672 80.5881 32.4009C81.4476 32.3601 82.3047 32.4739 83.1628 32.4009C83.2634 31.9811 83.4379 31.5758 83.5445 31.1531C81.0758 31.1238 78.6032 31.1526 76.1345 31.1531C76.3431 31.62 76.5424 32.1103 76.8299 32.534C77.6865 32.5549 78.5573 32.4217 79.4169 32.4009C78.2915 37.9418 71.5355 38.0669 70.5024 32.4009C71.2904 32.4212 72.0824 32.5479 72.8626 32.4009C73.0983 31.9722 73.2191 31.6394 73.3103 31.1531L68.5289 31.1526C67.7714 31.1541 67.0046 31.1978 66.2486 31.1531C66.5415 31.5798 66.7994 32.0547 66.9967 32.534C67.8636 32.5712 68.7187 32.5201 69.5852 32.4739C68.4623 37.8752 61.582 38.1121 60.5711 32.4009C61.4553 32.3522 62.3345 32.4769 63.2182 32.4009C63.4589 32.0174 63.526 31.5902 63.6078 31.1531C62.7823 31.1238 61.9455 31.1511 61.1185 31.1516L56.1994 31.1531C56.3345 31.5877 56.4982 32.0452 56.7882 32.4009C57.4367 32.5151 58.7627 32.4103 59.4793 32.4009C58.8411 34.2477 57.9022 36.1943 55.7344 36.4879C53.0108 36.8564 50.6624 35.0812 50.3113 32.3194C51.1827 32.3134 52.0432 32.4495 52.9185 32.4009C53.1567 32.0124 53.2682 31.5942 53.3698 31.1531C52.1039 31.0528 50.7325 31.0672 49.3906 31.0051V29.7404Z" fill="#00AEC7"/>
    <path d="M49.3906 23.3392L49.4947 23.3308C50.8863 23.2136 52.9314 23.3527 54.3866 23.3527L101.589 23.3517C103.07 23.3517 104.554 23.373 106.035 23.3517C106.416 24.5532 106.323 25.9485 105.572 26.9866C104.015 29.1379 101.431 28.7063 99.1099 28.7058L50.3246 28.7028C50.0199 28.7028 49.7038 28.6929 49.3906 28.7008V23.3392Z" fill="#00AEC7"/>
    <path d="M49.3906 3.72832L77.2372 3.72733C83.038 3.72733 86.6853 3.92998 91.267 8.22958C89.5095 8.27925 87.7391 8.18984 85.9786 8.20673L51.9204 8.30309C51.0772 8.30359 50.2334 8.32793 49.3906 8.30905V3.72832Z" fill="#00AEC7"/>
</svg>
